<svg xmlns="http://www.w3.org/2000/svg" version="1.1" xmlns:xlink="http://www.w3.org/1999/xlink" xmlns:svgjs="http://svgjs.dev/svgjs" width="1000" height="323" viewBox="0 0 1000 323"><g transform="matrix(1,0,0,1,-0.6060606060606801,0.026415743977651118)"><svg viewBox="0 0 396 128" data-background-color="#ffbe79" preserveAspectRatio="xMidYMid meet" height="323" width="1000" xmlns="http://www.w3.org/2000/svg" xmlns:xlink="http://www.w3.org/1999/xlink"><g id="tight-bounds" transform="matrix(1,0,0,1,0.24000000000003752,-0.010468090923723139)"><svg viewBox="0 0 395.5199999999999 128.02093624952786" height="128.02093624952786" width="395.5199999999999"><g><svg viewBox="0 0 727.2188455471334 235.38439893114082" height="128.02093624952786" width="395.5199999999999"><g><rect width="15.35977424913891" height="204.38587461459403" x="435.72883311292907" y="15.499262158273396" fill="#374151" opacity="1" stroke-width="0" stroke="transparent" fill-opacity="1" class="rect-o-0" data-fill-palette-color="primary" rx="1%" id="o-0" data-palette-color="#374151"></rect></g><g transform="matrix(1,0,0,1,0,32.531418376156225)"><svg viewBox="0 0 395.52 170.32156217882837" height="170.32156217882837" width="395.52"><g id="textblocktransform"><svg viewBox="0 0 395.52 170.32156217882837" height="170.32156217882837" width="395.52" id="textblock"><g><svg viewBox="0 0 395.52 170.32156217882837" height="170.32156217882837" width="395.52"><g transform="matrix(1,0,0,1,0,0)"><svg width="395.52" viewBox="3.5999999046325684 -31.700000762939453 97.29000091552734 41.900001525878906" height="170.32156217882837" data-palette-color="#374151"><path d="M24.5-28.1Q24.5-29.55 25.18-30.63 25.85-31.7 27.2-31.7L27.2-31.7Q28.35-31.7 29.25-31.25 30.15-30.8 30.15-29.75L30.15-29.75Q30.15-27.7 29.95-24L29.95-24Q29.75-20.4 29.75-18.65L29.75-18.65Q29.75-15.9 29.95-11.3L29.95-11.3Q30.15-6.9 30.15-4.85L30.15-4.85Q30.15-3.2 30.1-2.4L30.1-2.4Q30.1-1.6 29.23-0.83 28.35-0.05 26.55-0.05L26.55-0.05Q25.6-0.05 24.93-0.38 24.25-0.7 24-1.1L24-1.1Q21.65-3.95 17.15-10.8L17.15-10.8Q12.1-18.45 8.9-22.5L8.9-22.5Q9.3-18.9 9.3-13.7L9.3-13.7Q9.3-11.4 9.22-7.73 9.15-4.05 9-2.9L9-2.9Q8.8-1.45 8.13-0.68 7.45 0.1 6 0.1L6 0.1Q4.9 0.1 4.38-0.53 3.85-1.15 3.75-2.7L3.75-2.7Q3.7-4.75 4-8.85L4-8.85Q4.05-9.5 4.15-11.1 4.25-12.7 4.25-13.95L4.25-13.95Q4.25-17.4 3.9-21.85L3.9-21.85Q3.6-26.75 3.6-29.1L3.6-29.1Q3.6-30.3 4.48-30.95 5.35-31.6 6.5-31.6L6.5-31.6Q7.5-31.6 8.6-31.1L8.6-31.1Q12.9-25.7 20.25-15L20.25-15 24.95-7.8Q25-8.6 25-10.05L25-10.05Q25-12.6 24.9-15.55 24.8-18.5 24.75-19.55L24.75-19.55Q24.5-24.4 24.5-28.1L24.5-28.1ZM56.2-16.05Q56.6-15.35 56.85-14.03 57.1-12.7 57.1-11.65L57.1-11.65Q57.1-9.7 56.25-6.1L56.25-6.1Q52.8 0.2 46.05 0.2L46.05 0.2Q43.55 0.2 40.95-1.45 38.35-3.1 37.35-5.25L37.35-5.25Q36-9.55 36-10.7L36-10.7Q36-12.7 36.87-14.95 37.75-17.2 39.1-18.85L39.1-18.85Q39.95-20 42.15-20.83 44.35-21.65 46.15-21.65L46.15-21.65Q49.65-21.65 52.1-20.33 54.55-19 56.2-16.05L56.2-16.05ZM51.85-8Q52.1-8.65 52.1-11.35L52.1-11.35Q52.1-12.8 51.57-14.2 51.05-15.6 50.05-16.6L50.05-16.6Q49.95-16.7 49.5-16.93 49.05-17.15 48.27-17.38 47.5-17.6 46.5-17.6L46.5-17.6Q43.7-17.6 42.4-15.35 41.1-13.1 41.1-10.25L41.1-10.25Q41.1-9.75 41.37-8.35 41.65-6.95 41.85-6.6L41.85-6.6Q42-6.25 42.62-5.63 43.25-5 44.17-4.53 45.1-4.05 46.1-4.05L46.1-4.05Q48.35-4.05 49.7-5.13 51.05-6.2 51.85-8L51.85-8ZM64.4-17.1L62-17.3Q61.3-17.4 60.87-17.9 60.45-18.4 60.45-19.1L60.45-19.1Q60.45-19.45 60.62-19.85 60.8-20.25 61.15-20.55L61.15-20.55Q61.8-21.2 64.65-21.2L64.65-21.2Q65.05-23.15 65.05-25.15L65.05-25.15Q65.05-25.9 65-26.45 64.95-27 64.95-27.3L64.95-27.3Q64.95-28.4 65.77-28.95 66.59-29.5 67.65-29.5L67.65-29.5Q68.95-29.5 69.42-28.85 69.9-28.2 69.9-26.45L69.9-26.45Q69.9-23.85 69.45-21.35L69.45-21.35Q70.25-21.35 71.65-21.45L71.65-21.45Q73.55-21.55 74.4-21.55L74.4-21.55Q75.25-21.55 75.87-21.13 76.5-20.7 76.5-19.95L76.5-19.95Q76.5-18 74.75-17.65L74.75-17.65Q72.9-17.2 69-17.1L69-17.1Q68.84-15.15 68.84-12.85L68.84-12.85Q68.84-9.25 69.3-6.95L69.3-6.95Q69.59-5.35 70.32-4.63 71.05-3.9 72.5-3.9L72.5-3.9Q73.34-3.9 74.25-4.35L74.25-4.35Q74.84-4.7 75.34-4.7L75.34-4.7Q76.05-4.7 76.37-4.25 76.7-3.8 76.7-3.05L76.7-3.05Q76.7-1.65 75.2-0.73 73.7 0.2 71.34 0.2L71.34 0.2Q69.9 0.2 68.42-0.5 66.95-1.2 65.95-2.25L65.95-2.25Q65.8-2.4 65.4-3.4 65-4.4 64.7-5.55L64.7-5.55Q64.2-7.9 64.2-12.15L64.2-12.15Q64.2-14 64.4-17.1L64.4-17.1ZM86.24 10.2Q84.34 10.2 83.07 9.58 81.79 8.95 81.17 8.08 80.54 7.2 80.54 6.55L80.54 6.55Q80.54 5.7 81.14 5.23 81.74 4.75 82.59 4.75L82.59 4.75Q83.09 4.75 83.54 5.05 83.99 5.35 84.04 5.4L84.04 5.4Q84.39 5.65 84.74 5.83 85.09 6 85.49 6L85.49 6Q86.59 6 87.29 4.55 87.99 3.1 88.69-0.15L88.69-0.15Q86.44-3.45 84.94-6.75L84.94-6.75 83.79-9.4Q83.54-10 82.42-12.53 81.29-15.05 80.19-17L80.19-17Q79.49-18.4 79.49-18.9L79.49-18.9Q79.49-20.15 80.37-20.75 81.24-21.35 82.39-21.35L82.39-21.35Q83.19-21.35 83.62-21.03 84.04-20.7 84.59-19.85L84.59-19.85Q86.04-17.45 87.74-12.65L87.74-12.65Q88.74-9.9 89.34-8.47 89.94-7.05 90.79-5.6L90.79-5.6Q91.64-7.55 92.94-12.25L92.94-12.25Q93.74-14.95 94.27-16.57 94.79-18.2 95.44-19.55L95.44-19.55Q95.89-20.45 96.57-21 97.24-21.55 98.09-21.55L98.09-21.55Q98.94-21.55 99.92-20.93 100.89-20.3 100.89-19.45L100.89-19.45Q100.89-18.95 100.54-18.25L100.54-18.25Q98.59-13.75 97.12-9.78 95.64-5.8 94.29-1.05L94.29-1.05Q93.49 1.6 92.62 4 91.74 6.4 91.39 6.95L91.39 6.95Q90.39 8.35 89.14 9.28 87.89 10.2 86.24 10.2L86.24 10.2Z" opacity="1" transform="matrix(1,0,0,1,0,0)" fill="#374151" class="wordmark-text-0" data-fill-palette-color="primary" id="text-0"></path></svg></g></svg></g></svg></g></svg></g><g transform="matrix(1,0,0,1,491.2974404749971,0)"><svg viewBox="0 0 235.9214050721363 235.38439893114082" height="235.38439893114082" width="235.9214050721363"><g><svg xmlns="http://www.w3.org/2000/svg" xmlns:xlink="http://www.w3.org/1999/xlink" version="1.1" x="0" y="0" viewBox="1.496000051498413 1.5490000247955322 47.009002685546875 46.902000427246094" enable-background="new 0 0 50 50" xml:space="preserve" height="235.38439893114082" width="235.9214050721363" class="icon-icon-0" data-fill-palette-color="accent" id="icon-0"><g fill="#374151" data-fill-palette-color="accent"><path fill="#374151" d="M32.121 47.295l-0.002-0.031-0.008 0.01-0.09-2.393c0.004 0.002 0.008 0.004 0.012 0.004l-0.178-4.818 7.623-21.234v-4.845L28.215 1.549H1.496v46.902h37.982v-14.05l-2.611 7.296L32.121 47.295zM38.871 14.716h-9.169c-1.125 0-2.038-1.028-2.038-2.3L27.608 2.277 38.871 14.716zM8.713 18.05h23.32v1.292H8.713V18.05zM8.773 21.618h23.319v1.293H8.773V21.618zM8.832 25.187h23.32v1.292H8.832V25.187zM8.892 28.756h23.32v1.293H8.892V28.756zM8.951 32.324h23.32v1.293H8.951V32.324z" data-fill-palette-color="accent"></path><polygon fill="#374151" points="32.813,39.791 32.991,44.641 36.225,40.828 47.488,9.353 44.131,8.262  " data-fill-palette-color="accent"></polygon><path fill="#374151" d="M46.836 5.467c-1.122-0.363-1.68-0.416-1.68-0.416L44.561 6.71l3.349 1.086 0.595-1.668C48.291 6.021 47.727 5.757 46.836 5.467z" data-fill-palette-color="accent"></path></g></svg></g></svg></g></svg></g><defs></defs></svg><rect width="395.5199999999999" height="128.02093624952786" fill="none" stroke="none" visibility="hidden"></rect></g></svg></g></svg>