<svg id="visual" viewBox="0 0 900 600" width="900" height="600" xmlns="http://www.w3.org/2000/svg" xmlns:xlink="http://www.w3.org/1999/xlink" version="1.1"><rect x="0" y="0" width="900" height="600" fill="#FFFFFF"></rect><defs><linearGradient id="grad1_0" x1="33.3%" y1="0%" x2="100%" y2="100%"><stop offset="20%" stop-color="#fbae3c" stop-opacity="1"></stop><stop offset="80%" stop-color="#fbae3c" stop-opacity="1"></stop></linearGradient></defs><defs><linearGradient id="grad1_1" x1="33.3%" y1="0%" x2="100%" y2="100%"><stop offset="20%" stop-color="#fbae3c" stop-opacity="1"></stop><stop offset="80%" stop-color="#ffc880" stop-opacity="1"></stop></linearGradient></defs><defs><linearGradient id="grad1_2" x1="33.3%" y1="0%" x2="100%" y2="100%"><stop offset="20%" stop-color="#ffe3bf" stop-opacity="1"></stop><stop offset="80%" stop-color="#ffc880" stop-opacity="1"></stop></linearGradient></defs><defs><linearGradient id="grad1_3" x1="33.3%" y1="0%" x2="100%" y2="100%"><stop offset="20%" stop-color="#ffe3bf" stop-opacity="1"></stop><stop offset="80%" stop-color="#ffffff" stop-opacity="1"></stop></linearGradient></defs><defs><linearGradient id="grad2_0" x1="0%" y1="0%" x2="66.7%" y2="100%"><stop offset="20%" stop-color="#fbae3c" stop-opacity="1"></stop><stop offset="80%" stop-color="#fbae3c" stop-opacity="1"></stop></linearGradient></defs><defs><linearGradient id="grad2_1" x1="0%" y1="0%" x2="66.7%" y2="100%"><stop offset="20%" stop-color="#ffc880" stop-opacity="1"></stop><stop offset="80%" stop-color="#fbae3c" stop-opacity="1"></stop></linearGradient></defs><defs><linearGradient id="grad2_2" x1="0%" y1="0%" x2="66.7%" y2="100%"><stop offset="20%" stop-color="#ffc880" stop-opacity="1"></stop><stop offset="80%" stop-color="#ffe3bf" stop-opacity="1"></stop></linearGradient></defs><defs><linearGradient id="grad2_3" x1="0%" y1="0%" x2="66.7%" y2="100%"><stop offset="20%" stop-color="#ffffff" stop-opacity="1"></stop><stop offset="80%" stop-color="#ffe3bf" stop-opacity="1"></stop></linearGradient></defs><g transform="translate(900, 0)"><path d="M0 513.8C-38.6 506.2 -77.2 498.6 -110.4 483.6C-143.5 468.6 -171.2 446.2 -210 436.1C-248.8 425.9 -298.8 428 -319.2 400.3C-339.6 372.6 -330.4 315.3 -356.5 284.3C-382.6 253.4 -443.9 248.8 -458.6 220.8C-473.3 192.9 -441.3 141.5 -441.6 100.8C-441.9 60.1 -474.5 30 -507 0L0 0Z" fill="#fff1df"></path><path d="M0 385.3C-29 379.6 -57.9 373.9 -82.8 362.7C-107.6 351.4 -128.4 334.7 -157.5 327.1C-186.6 319.4 -224.1 321 -239.4 300.2C-254.7 279.5 -247.8 236.5 -267.4 213.2C-286.9 190 -332.9 186.6 -343.9 165.6C-355 144.7 -331 106.1 -331.2 75.6C-331.5 45.1 -355.9 22.5 -380.2 0L0 0Z" fill="#ffd69f"></path><path d="M0 256.9C-19.3 253.1 -38.6 249.3 -55.2 241.8C-71.8 234.3 -85.6 223.1 -105 218C-124.4 213 -149.4 214 -159.6 200.1C-169.8 186.3 -165.2 157.6 -178.3 142.2C-191.3 126.7 -222 124.4 -229.3 110.4C-236.6 96.4 -220.7 70.8 -220.8 50.4C-221 30 -237.2 15 -253.5 0L0 0Z" fill="#ffbb5f"></path><path d="M0 128.4C-9.7 126.5 -19.3 124.6 -27.6 120.9C-35.9 117.1 -42.8 111.6 -52.5 109C-62.2 106.5 -74.7 107 -79.8 100.1C-84.9 93.2 -82.6 78.8 -89.1 71.1C-95.6 63.3 -111 62.2 -114.6 55.2C-118.3 48.2 -110.3 35.4 -110.4 25.2C-110.5 15 -118.6 7.5 -126.7 0L0 0Z" fill="#fbae3c"></path></g><g transform="translate(0, 600)"><path d="M0 -453C39.2 -472.2 78.3 -491.5 110.1 -482.6C142 -473.7 166.5 -436.7 203.9 -423.5C241.4 -410.2 291.8 -420.8 318 -398.7C344.2 -376.6 346.1 -321.8 355 -283.1C363.8 -244.3 379.5 -221.6 409.9 -197.4C440.4 -173.2 485.5 -147.5 500.9 -114.3C516.4 -81.2 502.2 -40.6 488 0L0 0Z" fill="#fff1df"></path><path d="M0 -339.7C29.4 -354.2 58.7 -368.6 82.6 -361.9C106.5 -355.3 124.9 -327.5 152.9 -317.6C181 -307.7 218.8 -315.6 238.5 -299.1C258.1 -282.5 259.6 -241.4 266.2 -212.3C272.8 -183.2 284.6 -166.2 307.5 -148.1C330.3 -129.9 364.1 -110.6 375.7 -85.7C387.3 -60.9 376.6 -30.4 366 0L0 0Z" fill="#ffd69f"></path><path d="M0 -226.5C19.6 -236.1 39.2 -245.7 55.1 -241.3C71 -236.8 83.2 -218.3 102 -211.7C120.7 -205.1 145.9 -210.4 159 -199.4C172.1 -188.3 173.1 -160.9 177.5 -141.5C181.9 -122.2 189.8 -110.8 205 -98.7C220.2 -86.6 242.7 -73.7 250.5 -57.2C258.2 -40.6 251.1 -20.3 244 0L0 0Z" fill="#ffbb5f"></path><path d="M0 -113.2C9.8 -118.1 19.6 -122.9 27.5 -120.6C35.5 -118.4 41.6 -109.2 51 -105.9C60.3 -102.6 72.9 -105.2 79.5 -99.7C86 -94.2 86.5 -80.5 88.7 -70.8C90.9 -61.1 94.9 -55.4 102.5 -49.4C110.1 -43.3 121.4 -36.9 125.2 -28.6C129.1 -20.3 125.5 -10.1 122 0L0 0Z" fill="#fbae3c"></path></g></svg>