<?xml version="1.0" encoding="UTF-8"?>
<svg id="Layer_2" data-name="Layer 2" xmlns="http://www.w3.org/2000/svg" viewBox="0 0 87.96 87.96">
  <defs>
    <style>
      .cls-1 {
        fill: #fff;
      }

      .cls-2 {
        opacity: .2;
      }

      .cls-3 {
        fill: #ffc727;
      }
    </style>
  </defs>
  <g id="Note_2" data-name="Note 2">
    <g>
      <path class="cls-3" d="M71.45,87.96H1.5s-1.5-8.98-1.5-17.51V0H87.96V71.37c0,7.13-16.51,16.59-16.51,16.59Z"/>
      <path class="cls-2" d="M87.95,71.35c0,6.93-15.52,16-16.48,16.56,2.57-1.74,2.14-15.52,2.14-15.52,0,0,14.08-1.83,14.34-1.05Z"/>
      <g>
        <path class="cls-1" d="M12.95,20.79c10.34-.85,20.69-1.05,31.03-1.09,10.34,.04,20.69,.23,31.03,1.09-10.34,.85-20.69,1.05-31.03,1.09-10.34-.04-20.69-.24-31.03-1.09Z"/>
        <path class="cls-1" d="M12.95,32.38c8.14-.85,16.28-1.05,24.41-1.09,8.14,.04,16.28,.23,24.41,1.09-8.14,.85-16.28,1.05-24.41,1.09-8.14-.04-16.28-.24-24.41-1.09Z"/>
        <path class="cls-1" d="M12.95,43.98c8.14-.85,16.28-1.05,24.41-1.09,8.14,.04,16.28,.24,24.41,1.09-8.14,.85-16.28,1.05-24.41,1.09-8.14-.04-16.28-.24-24.41-1.09Z"/>
      </g>
    </g>
  </g>
</svg>