<?xml version="1.0" encoding="UTF-8"?>
<svg id="Layer_2" data-name="Layer 2" xmlns="http://www.w3.org/2000/svg" viewBox="0 0 50.88 96.97">
  <defs>
    <style>
      .cls-1 {
        fill: #455a64;
      }

      .cls-2 {
        fill: #ffc727;
      }

      .cls-3 {
        fill: #263238;
      }
    </style>
  </defs>
  <g id="Plant">
    <g>
      <g>
        <g>
          <path class="cls-2" d="M49.66,25.41c-9.78,13.25-19.98,28.62-22.46,45.23-.03,.25,.37,.33,.43,.08,1.14-4.56,2.57-8.98,4.33-13.3,6.43-1.77,12.74-3.22,16.12-9.61,3.44-6.56,3.01-15.12,2.35-22.26-.05-.38-.57-.4-.76-.15Z"/>
          <g>
            <path class="cls-3" d="M32.05,57.3c4.39-9.86,10.04-19.76,17.21-27.87,.05-.05,.12,.02,.08,.08-4.69,5.77-8.26,12.06-11.75,18.46,3.24-3.29,6.79-6.23,9.86-9.72,.06-.07,.16,.03,.1,.1-3.05,3.66-6.37,7.63-10.34,10.33-1.07,1.96-2.14,3.93-3.23,5.9,.27-.15,.54-.28,.82-.42,.05-.02,.09,.05,.04,.07-.3,.15-.6,.31-.91,.45-.52,.93-1.03,1.86-1.56,2.79-.12,.21-.41,.03-.31-.18Z"/>
            <path class="cls-3" d="M35.32,53.86c2.62-1.5,5.15-3.12,7.51-5.01,.06-.05,.16,.04,.09,.09-2.32,1.96-4.79,3.72-7.49,5.1-.12,.06-.23-.12-.11-.18Z"/>
          </g>
        </g>
        <g>
          <path class="cls-2" d="M26.07,68.17c.02,.2,.36,.2,.36-.02,.05-5.47,0-10.97,.09-16.46,1.4-2.83,4.41-4.39,6.5-6.66,1.51-1.64,2.8-3.48,3.9-5.43,2.59-4.63,3.99-9.83,4.53-15.09,.58-5.85-1.64-25.16-4.11-24.49-1.28,.35-5.42,9.91-6.52,13.07-1.8,5.2-3.06,10.59-3.89,16.03-2,12.87-1.83,26.09-.85,39.05Z"/>
          <g>
            <path class="cls-3" d="M26.03,44.57s.02-.01,.02-.02c.3-6.92,1.86-13.91,3.32-20.63,1.57-7.23,3.41-14.04,7.13-20.49,.07-.12,.25-.01,.18,.11-2.53,4.99-4.34,10.29-5.73,15.73,.25-.39,.55-.76,.81-1.13,.1-.14,.34,0,.24,.14-.36,.55-.69,1.18-1.16,1.64-.02,.02-.03,.02-.05,.02-1.28,5.17-2.2,10.46-2.99,15.73,.06-.07,.12-.14,.18-.2,.04-.04,.11,.01,.08,.06-.1,.17-.21,.35-.31,.52-.4,2.68-.76,5.35-1.13,8,4.77-4.07,8.84-8.88,11.13-14.8,.01-.03,.06-.02,.04,.01-2.25,6.14-5.8,11.59-11.26,15.32-.1,.71-.2,1.43-.3,2.14-.02,.15-.26,.11-.26-.03,0-.63,.03-1.26,.06-1.89-.07-.06-.1-.16-.02-.23Z"/>
            <path class="cls-3" d="M28.27,34.54c3.64-5.44,7.05-10.72,9.71-16.73,.03-.07,.14-.02,.12,.05-2.25,5.97-5.39,12.02-9.65,16.82-.09,.1-.26-.03-.18-.14Z"/>
            <path class="cls-3" d="M33.12,16.47c1.51-2.67,3.1-5.27,4.52-7.99,.04-.08,.14,0,.11,.07-1.19,2.78-2.62,5.61-4.4,8.06-.1,.14-.32,.02-.23-.14Z"/>
            <path class="cls-3" d="M32.53,17.63s.03,.05,0,.05-.03-.05,0-.05Z"/>
          </g>
        </g>
        <g>
          <path class="cls-2" d="M22.37,52.35c-.09,3.62-.48,7.25-1.28,10.78,.06,.39,.11,.78,.17,1.18,1.14-3.93,1.74-7.95,1.93-12.01,.06-.11,.09-.23,.02-.37h0c.21-5.44-.3-10.92-1.21-16.29-1.69-10.05-5.4-19.7-12.41-27.24-.22-.23-.67-.11-.77,.16-2.83,7.19-1.84,15.78,.57,22.96,1.31,3.87,3.18,7.58,5.56,10.9,2.41,3.38,5.47,6.24,7.43,9.94Z"/>
          <g>
            <path class="cls-3" d="M10.41,11.76c6.65,10.78,11.27,23.57,11.83,36.31,0,.23-.37,.29-.4,.05-.16-1.14-.33-2.28-.52-3.41,0,0,0,0-.01,0-2.75-2.63-5.57-5.41-7.54-8.7-.03-.06,.05-.13,.09-.07,2.39,2.73,4.62,5.53,7.32,7.97-.48-2.82-1.04-5.59-1.71-8.32-.18-.2-.35-.41-.53-.62-.12-.14,.08-.33,.2-.2,.05,.06,.11,.12,.16,.18-.94-3.75-2.09-7.42-3.47-11.03-1.69-2.02-3.58-3.76-4.82-6.19-.03-.06,.05-.1,.09-.05,.99,1.39,1.95,2.79,3.07,4.08,.45,.51,.94,.99,1.4,1.5-1.51-3.85-3.31-7.63-5.44-11.34-.1-.17,.16-.31,.26-.15Z"/>
            <path class="cls-3" d="M11.76,25.07c2.15,2.89,4.6,5.65,6.59,8.64,.06,.09-.07,.17-.14,.11-2.57-2.41-4.74-5.69-6.6-8.66-.06-.09,.08-.17,.14-.08Z"/>
            <path class="cls-3" d="M18.65,34.37l.09,.09c.06,.06-.03,.16-.1,.1l-.09-.09c-.06-.06,.04-.16,.1-.1Z"/>
          </g>
        </g>
        <g>
          <path class="cls-2" d="M0,32.49c.53,5.55,3.45,12.18,7.01,16.45,1.58,1.89,3.49,3.34,5.69,4.44,2.46,1.22,5.04,2.62,7.59,3.62,1.19,3.04,2.1,6.23,2.69,9.55,.08-.28,.16-.57,.25-.85-1.64-14.05-10.73-26.06-22.35-33.76-.42-.28-.91,.08-.87,.55Z"/>
          <g>
            <path class="cls-3" d="M4.02,36.65c-.08-.07,.03-.22,.12-.15,6.16,4.56,11.71,11.22,14.82,18.26,.08,.19-.18,.36-.29,.17-.54-.95-1.09-1.87-1.65-2.77,0,0,0,0,0,0-2.65-.5-5.17-2.37-7.14-4.14-.05-.05,.03-.13,.08-.08,1.03,.91,2.13,1.74,3.36,2.36,1.08,.55,2.25,.9,3.37,1.34-.98-1.56-2.01-3.06-3.08-4.51-2.86-.97-5.58-2.73-7.98-4.48-.08-.06,0-.18,.07-.13,2.45,1.47,4.86,2.77,7.41,3.96-1.61-2.13-3.35-4.15-5.23-6.1-.9-.48-1.82-.95-2.69-1.46-.07-.04-.02-.16,.06-.14,.7,.23,1.41,.6,2.06,1.01-1.05-1.06-2.13-2.11-3.29-3.13Z"/>
            <path class="cls-3" d="M4.27,41.5c.16,.1,.31,.19,.45,.32,.04,.04-.01,.09-.06,.07-.17-.07-.31-.16-.47-.26-.08-.05,0-.18,.08-.13Z"/>
          </g>
        </g>
      </g>
      <g>
        <g>
          <polygon class="cls-1" points="41.37 96.97 9.51 96.97 12.08 67.96 12.65 61.56 38.24 61.56 38.8 67.96 41.37 96.97"/>
          <polygon class="cls-3" points="38.8 67.96 12.08 67.96 12.65 61.56 38.24 61.56 38.8 67.96"/>
        </g>
        <rect class="cls-1" x="11.12" y="57.08" width="28.64" height="6.33"/>
      </g>
    </g>
  </g>
</svg>