<?xml version="1.0" encoding="UTF-8"?>
<svg id="Layer_2" data-name="Layer 2" xmlns="http://www.w3.org/2000/svg" viewBox="0 0 101.18 93.07">
  <defs>
    <style>
      .cls-1, .cls-2 {
        fill: #fff;
      }

      .cls-3 {
        fill: #dbdbdb;
      }

      .cls-4 {
        opacity: .5;
      }

      .cls-2 {
        opacity: .8;
      }

      .cls-5 {
        fill: #ffc727;
      }

      .cls-6 {
        fill: #263238;
      }
    </style>
  </defs>
  <g id="Note_3" data-name="Note 3">
    <g>
      <g>
        <path class="cls-5" d="M95.53,93.07H12.11s-4.13-8.52-4.13-16.6V9.65H91.4V77.34c0,6.77,4.13,15.74,4.13,15.74Z"/>
        <path class="cls-2" d="M95.53,93.07H12.11s-4.13-8.52-4.13-16.6V9.65H91.4V77.34c0,6.77,4.13,15.74,4.13,15.74Z"/>
      </g>
      <g>
        <g>
          <rect class="cls-3" x="7.98" y="15.34" width="83.42" height=".25"/>
          <rect class="cls-3" x="7.98" y="21.33" width="83.42" height=".25"/>
          <rect class="cls-3" x="7.98" y="27.33" width="83.42" height=".25"/>
          <rect class="cls-3" x="7.98" y="33.32" width="83.42" height=".25"/>
          <rect class="cls-3" x="7.98" y="39.32" width="83.42" height=".25"/>
          <rect class="cls-3" x="7.98" y="45.31" width="83.42" height=".25"/>
          <rect class="cls-3" x="7.98" y="51.3" width="83.42" height=".25"/>
          <rect class="cls-3" x="7.98" y="57.3" width="83.42" height=".25"/>
          <rect class="cls-3" x="7.98" y="63.29" width="83.42" height=".25"/>
          <rect class="cls-3" x="7.98" y="69.29" width="83.42" height=".25"/>
          <rect class="cls-3" x="7.98" y="75.28" width="83.42" height=".25"/>
          <path class="cls-3" d="M91.82,81.53H8.45c-.02-.08-.03-.16-.04-.25H91.78c.01,.08,.03,.17,.04,.25Z"/>
          <path class="cls-3" d="M93.4,87.52H9.96c-.03-.08-.06-.16-.08-.25H93.32c.02,.09,.05,.17,.08,.25Z"/>
        </g>
        <g>
          <path class="cls-3" d="M17.51,93.07h-.26c-.66-1.8-1.32-3.7-1.9-5.55-.02-.09-.05-.17-.07-.25-.63-2.04-1.16-4.02-1.46-5.74-.02-.08-.04-.17-.05-.25-.17-.97-.26-1.85-.26-2.61V9.65h.25V78.67c0,.76,.09,1.64,.26,2.61,0,.08,.03,.16,.04,.25,.31,1.72,.84,3.7,1.47,5.74,.03,.08,.05,.17,.08,.25,.58,1.86,1.24,3.76,1.9,5.55Z"/>
          <path class="cls-3" d="M23.51,93.07h-.26c-.66-1.8-1.32-3.7-1.9-5.55-.02-.09-.05-.17-.07-.25-.63-2.04-1.16-4.02-1.46-5.74-.02-.08-.04-.17-.05-.25-.17-.97-.26-1.85-.26-2.61V9.65h.25V78.67c0,.76,.09,1.64,.26,2.61,0,.08,.03,.16,.04,.25,.31,1.72,.84,3.7,1.47,5.74,.03,.08,.05,.17,.08,.25,.58,1.86,1.24,3.76,1.9,5.55Z"/>
          <path class="cls-3" d="M29.5,93.07h-.26c-.66-1.8-1.32-3.7-1.9-5.55-.02-.09-.05-.17-.07-.25-.63-2.04-1.16-4.02-1.46-5.74-.02-.08-.04-.17-.05-.25-.17-.97-.26-1.85-.26-2.61V9.65h.25V78.67c0,.76,.09,1.64,.26,2.61,.01,.08,.03,.16,.04,.25,.31,1.72,.84,3.7,1.47,5.74,.03,.08,.05,.17,.08,.25,.58,1.86,1.24,3.76,1.9,5.55Z"/>
          <path class="cls-3" d="M35.5,93.07h-.26c-.66-1.8-1.32-3.7-1.9-5.55-.03-.09-.05-.17-.08-.25-.63-2.04-1.15-4.02-1.46-5.74-.01-.08-.03-.17-.04-.25-.17-.97-.26-1.85-.26-2.61V9.65h.25V78.67c0,.76,.09,1.64,.26,2.61,.01,.08,.03,.16,.04,.25,.31,1.72,.84,3.7,1.47,5.74,.03,.08,.05,.17,.08,.25,.58,1.86,1.24,3.76,1.9,5.55Z"/>
          <path class="cls-3" d="M41.49,93.07h-.26c-.66-1.8-1.32-3.7-1.9-5.55-.02-.09-.05-.17-.07-.25-.63-2.04-1.16-4.02-1.46-5.74-.02-.08-.04-.17-.05-.25-.17-.97-.26-1.85-.26-2.61V9.65h.25V78.67c0,.76,.09,1.64,.26,2.61,.01,.08,.03,.16,.04,.25,.31,1.72,.84,3.7,1.47,5.74,.03,.08,.05,.17,.08,.25,.58,1.86,1.24,3.76,1.9,5.55Z"/>
          <path class="cls-3" d="M47.49,93.07h-.26c-.66-1.8-1.32-3.7-1.9-5.55-.02-.09-.05-.17-.07-.25-.63-2.04-1.16-4.02-1.46-5.74-.02-.08-.04-.17-.05-.25-.17-.97-.26-1.85-.26-2.61V9.65h.25V78.67c0,.76,.09,1.64,.26,2.61,.01,.08,.03,.16,.04,.25,.31,1.72,.84,3.7,1.47,5.74,.03,.08,.05,.17,.08,.25,.58,1.86,1.24,3.76,1.9,5.55Z"/>
          <path class="cls-3" d="M53.48,93.07h-.26c-.66-1.8-1.32-3.7-1.9-5.55-.03-.09-.05-.17-.08-.25-.63-2.04-1.15-4.02-1.46-5.74,0-.08-.03-.17-.04-.25-.17-.97-.26-1.85-.26-2.61V9.65h.25V78.67c0,.76,.09,1.64,.26,2.61,.01,.08,.03,.16,.04,.25,.31,1.72,.84,3.7,1.47,5.74,.03,.08,.05,.17,.08,.25,.58,1.86,1.24,3.76,1.9,5.55Z"/>
          <path class="cls-3" d="M59.48,93.07h-.26c-.66-1.8-1.32-3.7-1.9-5.55-.03-.09-.05-.17-.08-.25-.63-2.04-1.15-4.02-1.46-5.74,0-.08-.03-.17-.04-.25-.17-.97-.26-1.85-.26-2.61V9.65h.25V78.67c0,.76,.09,1.64,.26,2.61,.01,.08,.03,.16,.04,.25,.31,1.72,.84,3.7,1.47,5.74,.03,.08,.05,.17,.08,.25,.58,1.86,1.24,3.76,1.9,5.55Z"/>
          <path class="cls-3" d="M65.47,93.07h-.26c-.66-1.8-1.32-3.7-1.9-5.55-.02-.09-.05-.17-.07-.25-.63-2.04-1.16-4.02-1.46-5.74-.02-.08-.04-.17-.05-.25-.17-.97-.26-1.85-.26-2.61V9.65h.25V78.67c0,.76,.09,1.64,.26,2.61,.01,.08,.03,.16,.04,.25,.31,1.72,.84,3.7,1.47,5.74,.03,.08,.05,.17,.08,.25,.58,1.86,1.24,3.76,1.9,5.55Z"/>
          <path class="cls-3" d="M71.47,93.07h-.26c-.66-1.8-1.32-3.7-1.9-5.55-.02-.09-.05-.17-.07-.25-.63-2.04-1.16-4.02-1.46-5.74-.02-.08-.04-.17-.05-.25-.17-.97-.26-1.85-.26-2.61V9.65h.25V78.67c0,.76,.09,1.64,.26,2.61,.01,.08,.03,.16,.04,.25,.31,1.72,.84,3.7,1.47,5.74,.03,.08,.05,.17,.08,.25,.58,1.86,1.24,3.76,1.9,5.55Z"/>
          <path class="cls-3" d="M77.46,93.07h-.26c-.66-1.8-1.32-3.7-1.9-5.55-.03-.09-.05-.17-.08-.25-.63-2.04-1.15-4.02-1.46-5.74-.01-.08-.03-.17-.04-.25-.17-.97-.26-1.85-.26-2.61V9.65h.25V78.67c0,.76,.09,1.64,.26,2.61,.01,.08,.03,.16,.04,.25,.31,1.72,.84,3.7,1.47,5.74,.03,.08,.05,.17,.08,.25,.58,1.86,1.24,3.76,1.9,5.55Z"/>
          <path class="cls-3" d="M83.46,93.07h-.26c-.66-1.8-1.32-3.7-1.9-5.55-.03-.09-.05-.17-.08-.25-.63-2.04-1.15-4.02-1.46-5.74-.01-.08-.03-.17-.04-.25-.17-.97-.26-1.85-.26-2.61V9.65h.25V78.67c0,.76,.09,1.64,.26,2.61,.01,.08,.03,.16,.04,.25,.31,1.72,.84,3.7,1.47,5.74,.03,.08,.05,.17,.08,.25,.58,1.86,1.24,3.76,1.9,5.55Z"/>
          <path class="cls-3" d="M89.45,93.07h-.26c-.66-1.8-1.32-3.7-1.9-5.55-.02-.09-.05-.17-.07-.25-.63-2.04-1.16-4.02-1.46-5.74-.02-.08-.04-.17-.05-.25-.17-.97-.26-1.85-.26-2.61V9.65h.25V78.67c0,.76,.09,1.64,.26,2.61,.01,.08,.03,.16,.04,.25,.31,1.72,.84,3.7,1.47,5.74,.03,.08,.05,.17,.08,.25,.58,1.86,1.24,3.76,1.9,5.55Z"/>
        </g>
      </g>
      <g>
        <path class="cls-6" d="M20.52,26.08c4.93-.21,9.86-.3,14.8-.38,4.93-.08,9.86-.07,14.8-.12,4.93,.04,9.86,.04,14.8,.11l7.4,.14c2.47,.08,4.93,.13,7.4,.25-2.47,.11-4.93,.16-7.4,.25l-7.4,.14c-4.93,.08-9.86,.08-14.8,.11-4.93-.04-9.86-.03-14.8-.12-4.93-.08-9.86-.18-14.8-.38Z"/>
        <path class="cls-6" d="M20.52,31.97c4.93-.21,9.86-.3,14.8-.38,4.93-.08,9.86-.07,14.8-.12,4.93,.04,9.86,.04,14.8,.11l7.4,.14c2.47,.08,4.93,.13,7.4,.25-2.47,.11-4.93,.16-7.4,.25l-7.4,.14c-4.93,.08-9.86,.08-14.8,.11-4.93-.04-9.86-.03-14.8-.12-4.93-.08-9.86-.18-14.8-.38Z"/>
        <path class="cls-6" d="M20.52,37.85c3.53-.21,7.05-.3,10.58-.38,3.53-.09,7.05-.1,10.58-.12,3.53,.01,7.05,.02,10.58,.12l5.29,.14c1.76,.08,3.53,.13,5.29,.25-1.76,.11-3.53,.16-5.29,.25l-5.29,.14c-3.53,.09-7.05,.1-10.58,.12-3.53-.01-7.05-.03-10.58-.12-3.53-.08-7.05-.18-10.58-.38Z"/>
        <path class="cls-6" d="M20.52,49.61c2.14-.21,4.28-.3,6.42-.38,2.14-.09,4.28-.1,6.42-.12,2.14,.01,4.28,.02,6.42,.12l3.21,.14c1.07,.08,2.14,.13,3.21,.25-1.07,.11-2.14,.16-3.21,.25l-3.21,.14c-2.14,.09-4.28,.1-6.42,.12-2.14-.01-4.28-.03-6.42-.12-2.14-.08-4.28-.18-6.42-.38Z"/>
        <path class="cls-6" d="M20.52,55.49c4.93-.21,9.86-.3,14.8-.38,4.93-.08,9.86-.07,14.8-.12,4.93,.04,9.86,.04,14.8,.11l7.4,.14c2.47,.08,4.93,.13,7.4,.25-2.47,.11-4.93,.16-7.4,.25l-7.4,.14c-4.93,.08-9.86,.08-14.8,.11-4.93-.04-9.86-.03-14.8-.12-4.93-.08-9.86-.18-14.8-.38Z"/>
        <path class="cls-6" d="M20.52,61.37c4.19-.21,8.37-.3,12.56-.38,4.19-.08,8.37-.07,12.56-.12,4.19,.04,8.37,.04,12.56,.11l6.28,.14c2.09,.08,4.19,.13,6.28,.25-2.09,.11-4.19,.16-6.28,.25l-6.28,.14c-4.19,.08-8.37,.08-12.56,.11-4.19-.04-8.37-.03-12.56-.12-4.19-.08-8.37-.18-12.56-.38Z"/>
        <path class="cls-6" d="M20.52,67.26c3.46-.21,6.91-.3,10.37-.38,3.46-.09,6.91-.1,10.37-.12,3.46,.01,6.91,.02,10.37,.12l5.19,.14c1.73,.08,3.46,.13,5.19,.25-1.73,.11-3.46,.16-5.19,.25l-5.19,.14c-3.46,.09-6.91,.1-10.37,.12-3.46-.01-6.91-.03-10.37-.12-3.46-.08-6.91-.18-10.37-.38Z"/>
      </g>
      <g class="cls-4">
        <polygon class="cls-1" points="31.18 1.16 27.54 3.53 31.65 1.95 33.2 4.54 31.54 5.99 33.66 5.3 34.25 6.3 31.99 7.94 34.57 6.83 35.02 7.58 4.53 25.8 3.19 23.56 5.57 21.98 2.84 22.96 2.27 22.01 4.06 20.73 1.96 21.51 1.69 21.04 4.54 18.73 .97 19.84 0 18.22 30.49 0 31.18 1.16"/>
        <polygon class="cls-1" points="100.31 24 96.94 21.37 99.71 24.7 97.76 27 95.88 25.92 97.19 27.68 96.43 28.57 94.19 27 96.03 29.04 95.46 29.7 68.84 7.1 70.53 5.11 72.75 6.82 70.97 4.58 71.7 3.73 73.46 4.99 72.07 3.28 72.42 2.87 75.49 4.8 73.33 1.81 74.55 .36 101.18 22.97 100.31 24"/>
      </g>
    </g>
  </g>
</svg>