<?xml version="1.0" encoding="UTF-8"?>
<svg id="Layer_2" data-name="Layer 2" xmlns="http://www.w3.org/2000/svg" viewBox="0 0 403.25 248.95">
  <defs>
    <style>
      .cls-1 {
        fill: #fff;
      }

      .cls-2 {
        fill: #dbdbdb;
      }

      .cls-3 {
        fill: #d3766a;
      }

      .cls-4 {
        fill: #37474f;
      }

      .cls-5 {
        fill: #455a64;
      }

      .cls-6 {
        opacity: .2;
      }

      .cls-7 {
        fill: #c7c7c7;
      }

      .cls-8 {
        opacity: .1;
      }

      .cls-9 {
        fill: #ebebeb;
      }

      .cls-10 {
        fill: #ffc727;
      }

      .cls-11 {
        fill: #ffc4c0;
      }

      .cls-12 {
        fill: #263238;
      }
    </style>
  </defs>
  <g id="Shadow">
    <ellipse class="cls-9" cx="207.58" cy="221.44" rx="195.67" ry="27.51"/>
  </g>
  <g id="Chair">
    <g>
      <path class="cls-2" d="M40.59,218.65l159.75,.69c38.83-30.49,42.84-75.66,15.14-103.05-16.77-16.56-38.05-13.22-58.33-15.86-.02,0-.04,0-.06,0-7.06-.92-13.99-2.57-20.56-6.03-20.87-11.01-32.64-36.99-50.2-58.84-2.19-2.74-4.47-5.4-6.88-7.97-14.44-15.42-43.18-15.92-58.22,5.76C-16.95,88.42,.54,170.4,40.59,218.65Z"/>
      <path class="cls-7" d="M37.05,92.62c4.18,65.54,79.88,90.01,127.15,70.38,41.11-17.08,27.65-56.04-7.04-62.56-.02,0-.04,0-.06,0-7.06-.92-13.99-2.57-20.56-6.03-20.87-11.01-32.64-36.99-50.2-58.84-26.16-13.59-52.36,9.08-49.29,57.07Z"/>
    </g>
  </g>
  <g id="Character">
    <g>
      <g>
        <path class="cls-12" d="M92.47,3.16c11.39,10.8,19.22,38.89,13.45,56.62-6.88,21.12-25.72,31.9-41.17,26.9-14.03-4.54-20.21-18.72-15.05-29.27,4.98-10.18,14.47-13.92,16.24-22.98,.84-4.34-.61-11.54-.25-18.08,.65-11.9,17.92-21.61,26.79-13.2Z"/>
        <path class="cls-12" d="M47.81,59.85c.58-2.26,1.58-4.34,2.77-6.25,1.19-1.9,2.59-3.63,4.15-5.15,1.59-1.53,3.14-3.11,4.64-4.77,1.49-1.66,2.91-3.46,4.02-5.5,.54-1.03,1.07-2.05,1.44-3.22,.37-1.15,.54-2.37,.63-3.57,.15-2.42-.06-4.8-.17-7.16-.11-2.36-.07-4.72,.35-7,.39-2.29,1.61-4.42,2.73-6.4-1.27,1.86-2.58,3.98-3.11,6.29-.53,2.31-.62,4.73-.59,7.11,.01,2.38,.21,4.76,.04,7.07-.09,1.15-.26,2.29-.62,3.34-.35,1.04-.88,2.06-1.41,3.04-2.14,3.95-5.37,7.01-8.39,10.23-1.54,1.62-2.91,3.44-4.05,5.43-1.08,2.02-2.02,4.18-2.42,6.5Z"/>
      </g>
      <g>
        <g>
          <path class="cls-3" d="M174.87,248.2c-2.35-.86-55.39-43.25-56.39-46.14-.39-1.1,5.34-9.18,12.53-18.75,1.55-2.07,3.17-4.19,4.82-6.34,10.72-13.97,22.42-28.53,22.42-28.53l35.56,28.25-23.4,27.76-5.13,6.1s13.05,25.31,13.81,28.6c.75,3.28-1.87,9.92-4.22,9.06Z"/>
          <path class="cls-1" d="M174.87,248.2c-2.35-.86-55.39-43.25-56.39-46.14-.46-1.34,8.08-12.99,17.35-25.09l34.58,27.47-5.13,6.1s13.05,25.31,13.81,28.6c.75,3.28-1.87,9.92-4.22,9.06Z"/>
          <g>
            <path class="cls-10" d="M174.87,248.2c-2.35-.86-55.39-43.25-56.39-46.14-.39-1.1,5.34-9.18,12.53-18.75l34.27,27.23s13.05,25.31,13.81,28.6c.75,3.28-1.87,9.92-4.22,9.06Z"/>
            <g>
              <g>
                <path class="cls-12" d="M175.8,245.47c-8.72-7.32-44.56-36.04-53.74-42.62-.07-.05-.11,0-.04,.06,8.48,7.45,44.56,35.87,53.67,42.71,.19,.14,.3,0,.12-.15Z"/>
                <path class="cls-12" d="M177.2,234.5c-2.04-1.77-4.9-2.42-7.05-2.08-2.07,.32-4.37,1.27-5.78,3.16-.04,.05,.06,.13,.11,.09,3.29-3.07,8.9-3.6,12.64-1.05,.08,.05,.16-.05,.09-.11Z"/>
                <path class="cls-12" d="M168.03,214.17c-3.52-2.89-8.65-4.93-13.19-3.79-.18,.04-.11,.29,.04,.32,4.54,.91,8.59,2.12,12.86,3.96,.3,.13,.54-.28,.29-.49Z"/>
                <path class="cls-12" d="M169.92,217.43c-3.52-2.89-8.65-4.93-13.19-3.79-.18,.04-.11,.29,.04,.32,4.54,.91,8.59,2.12,12.86,3.96,.3,.13,.54-.28,.29-.49Z"/>
                <path class="cls-12" d="M171.81,220.7c-3.52-2.89-8.65-4.93-13.19-3.79-.18,.04-.11,.29,.04,.32,4.54,.91,8.59,2.12,12.86,3.96,.3,.13,.54-.28,.29-.49Z"/>
                <path class="cls-12" d="M173.7,223.97c-3.52-2.89-8.65-4.93-13.19-3.79-.18,.04-.11,.29,.04,.32,4.54,.91,8.59,2.12,12.86,3.96,.3,.13,.54-.28,.29-.49Z"/>
                <path class="cls-1" d="M131.08,196.21c-4-3.18-8.95,3.03-4.94,6.22,4,3.18,8.95-3.03,4.94-6.22Z"/>
              </g>
              <path class="cls-12" d="M179.46,207.75c-.61-2.93-4.04-3.29-6.39-2.62-3.81,1.07-7.86,3.61-10.51,6.52-.06,.07-.03,.15,.03,.19-.13,.32,0,.77,.41,.8,3.93,.27,8.11,1.05,12.01,.11,2.28-.55,5.03-2.21,4.45-4.99Zm-10.41,4.07c-1.94-.09-3.86-.27-5.8-.28,2.05-1.27,4.04-2.61,6.22-3.67,1.04-.5,2.12-1,3.22-1.36,1.71-.56,7.58-.74,4.84,3.41-1.51,2.29-6.17,2-8.48,1.9Z"/>
              <path class="cls-12" d="M152.67,205.89c2.72,2.95,6.62,4.62,10.04,6.59,.35,.2,.72-.1,.78-.44,.07,0,.15-.05,.13-.14-.59-3.89-2.54-8.25-5.11-11.26-1.58-1.86-4.64-3.47-6.77-1.37-2.02,1.99-.66,4.9,.93,6.62Zm-.53-3.74c.03-4.98,4.81-1.56,5.92-.15,.72,.91,1.33,1.92,1.92,2.92,1.22,2.09,2.13,4.32,3.13,6.51-1.62-1.07-3.32-1.98-4.98-2.99-1.98-1.2-6.01-3.55-5.99-6.29Z"/>
            </g>
          </g>
        </g>
        <path class="cls-4" d="M229.73,122.35c-2.44,18.48-47.97,71.81-53.23,77.93-.78,.9-1.2,1.39-1.2,1.39l-37.66-28.94,.43-.56,33.17-43.43-98.93-.58,37.56-29.21s3.05,1.76,9.38,.83c21.83-3.2,71.06-10.27,82.67-9.8,14.97,.62,30.05,15.42,27.81,32.37Z"/>
        <path class="cls-12" d="M183.15,112.6c-1.29,1.3-2.31,2.93-3.42,4.38-1.17,1.54-2.36,3.06-3.53,4.6-.01,.02-.02,.03-.03,.05,.21-.45,.41-.9,.63-1.35,.74-1.53,1.33-3.11,2.2-4.57,.05-.09-.08-.17-.14-.08-.9,1.45-1.94,2.83-2.71,4.36-.36,.72-.7,1.45-1.02,2.19-.17,.41-.35,.81-.51,1.22-.07,.19-.16,.39-.22,.59-.52,.71-1.04,1.43-1.55,2.16-1.12,1.62-2.1,3.33-3.23,4.93-.06,.09,.08,.17,.14,.08,1.14-1.51,2.43-2.92,3.59-4.41,1.18-1.52,2.31-3.09,3.42-4.67,1.08-1.54,2.14-3.1,3.22-4.64,1.09-1.55,2.38-3.08,3.26-4.76,.03-.06-.04-.13-.09-.08Z"/>
      </g>
      <g>
        <g>
          <path class="cls-3" d="M92.34,64.35c5.36,10.27,25.85,43.12,37.33,44.46,7.53,.87,37.03-4.94,41.47-12.49,1.93-3.29-3.95-24.33-7.84-23.09-3.89,1.24-27.46,6.74-30.48,6.18-3-.56-27.49-23.71-36.32-29.19-15.22-9.44-7.05,8.6-4.16,14.13Z"/>
          <g>
            <path class="cls-5" d="M154.13,72.58l3.79,32.11s-23.18,6.63-33.66,3.72c-12.72-3.53-33.34-40.97-36.23-47.16-4.74-10.15-4-16.53,1.9-15.35,2.29,.44,5.37,2.03,9.2,5.01,4.01,3.1,27.21,23.39,34.36,27.06,4,2.05,20.64-5.39,20.64-5.39Z"/>
            <path class="cls-10" d="M154.13,72.58l3.8,32.11s-3.84,1.1-9.11,2.21c-7.67,1.6-18.34,3.23-24.55,1.5-12.72-3.53-33.35-40.97-36.24-47.15-3.43-7.35-3.99-12.72-1.79-14.68,.83-.75,2.07-.99,3.7-.67,2.29,.45,5.37,2.04,9.21,5.01,4.01,3.1,27.2,23.39,34.35,27.06,4,2.06,20.63-5.39,20.63-5.39Z"/>
            <path class="cls-12" d="M152.01,104.56c-.7-4.73-2.87-24.18-3.06-28.42-.01-.29,.17-.37,.22-.07,2.45,14.12,2.57,23.78,3.02,28.45,.01,.12-.17,.15-.19,.03Z"/>
            <path class="cls-12" d="M88.03,61.24c2.89,6.19,23.52,43.63,36.23,47.16,3.13,.87,7.42,.88,11.88,.49l-47-63.1c-1.25-.11-2.23,.16-2.91,.78-2.2,1.96-1.64,7.34,1.79,14.68Z"/>
          </g>
        </g>
        <g>
          <g>
            <path class="cls-10" d="M52.71,124.24l60.15-15.37-5.93-21.72s4.76-6.81,2.74-13.31c-1.81-5.79-15.52-23.01-18.29-25.31-4.75-3.94-13.25-5.25-17.9,.23-19.18,22.61-20.76,75.47-20.76,75.47Z"/>
            <path class="cls-8" d="M88.07,46.49l-15.98,4c.45-.59,.91-1.16,1.38-1.72,.11-.13,.22-.25,.33-.37l11.46-2.87c.97,.23,1.91,.55,2.81,.96Zm3.77,2.47l-22.58,5.67c-.1,.17-.21,.34-.3,.51l23.23-5.83c-.12-.13-.24-.25-.35-.35Zm2.91,3.22l-28.04,7.03c-.31,.62-.62,1.26-.92,1.9l30.12-7.55c-.4-.49-.79-.95-1.16-1.38Zm3.45,4.22l-34.11,8.56c-.07,.16-.13,.32-.2,.48l34.6-8.67c-.1-.13-.2-.25-.29-.37Zm2.55,3.31l-38.34,9.62c-.22,.61-.43,1.22-.63,1.83l40.02-10.04c-.34-.48-.7-.95-1.05-1.41Zm3.15,4.3l-43.31,10.87c-.06,.15-.1,.31-.14,.46l43.7-10.96c-.08-.12-.17-.24-.25-.37Zm2.28,3.37l-46.82,11.75c-.15,.59-.31,1.19-.47,1.78l48.21-12.09c-.29-.46-.59-.94-.92-1.44Zm2.62,4.44l-50.79,12.74c-.04,.15-.07,.31-.11,.46l51.09-12.82c-.05-.12-.11-.25-.19-.38Zm1.23,3.63l-52.94,13.28c-.12,.59-.24,1.18-.36,1.76l53.43-13.4c0-.54-.04-1.09-.13-1.64Zm-53.97,18.63c-.03,.15-.06,.31-.08,.46l53.67-13.46c.04-.16,.08-.31,.11-.47l-53.7,13.47Zm-.7,4.12c-.09,.59-.18,1.17-.26,1.74l52-13.05c.22-.34,.63-1.02,1.09-1.94l-52.83,13.25Zm52.39-8.05l-53.16,13.34c-.02,.15-.04,.3-.06,.45l53.33-13.38-.11-.41Zm1.01,3.69l-54.68,13.72c-.07,.59-.14,1.16-.2,1.72l55.3-13.88-.42-1.56Zm1.3,4.77l-56.55,14.18c0,.15-.02,.3-.04,.45l56.7-14.22-.11-.41Zm1.01,3.69l-57.91,14.52c-.05,.6-.09,1.17-.13,1.7l58.46-14.66-.42-1.56Zm1.3,4.76l-59.55,14.94c-.02,.15-.02,.3-.03,.44l59.69-14.97-.11-.41Z"/>
          </g>
          <path class="cls-12" d="M99.4,57.44c1.51,1.88,3.14,3.68,4.71,5.53-.7-1.35-1.38-2.71-2.13-4.03-.02-.03,.02-.05,.04-.03,1.11,1.6,2.12,3.24,2.88,5.01,1.16,1.41,2.25,2.85,3.2,4.4,1.14,1.86,2.06,3.83,2.47,5.95,.41,2.12,.25,4.33-.27,6.43-.6,2.44-1.61,4.76-2.66,7.06-.14,.3-.59,.09-.48-.21,1.49-4,3.15-8.22,2.49-12.51-.65-4.23-3.18-7.93-5.64-11.41-1.49-2.09-2.99-4.19-4.76-6.08-.07-.08,.07-.18,.14-.09Z"/>
          <g>
            <path class="cls-12" d="M98.06,84.3c-2.72,1.04-5.43,2.18-7.97,3.61-1.27,.71-2.49,1.48-3.7,2.27-.61,.4-1.22,.77-1.84,1.14-.64,.38-1.33,.77-2.04,.98-.06,.02-.04,.12,.03,.1,.71-.17,1.38-.33,2.06-.59,.65-.25,1.27-.57,1.87-.9,1.29-.71,2.55-1.48,3.83-2.2,2.59-1.46,5.17-2.92,7.86-4.19,.12-.06,.03-.27-.1-.22Z"/>
            <path class="cls-12" d="M105.67,84.93c-2.37,.38-4.75,.88-7.06,1.53-1.16,.33-2.29,.72-3.42,1.14-.54,.2-1.07,.41-1.61,.63-.59,.24-1.14,.56-1.73,.79-.06,.02-.04,.12,.03,.1,.56-.2,1.16-.31,1.73-.48,.58-.17,1.15-.34,1.73-.51,1.15-.34,2.31-.67,3.46-1.02,2.3-.7,4.6-1.38,6.93-2,.13-.03,.07-.21-.05-.19Z"/>
          </g>
        </g>
        <g>
          <g>
            <path class="cls-3" d="M79.59,48.61c.36,1.08,6.3,7.76,11.33,7.06,1.64-.23,.76-9.23,.76-9.23l.09-.68,1.21-9.5-11.59-6-1.67-.78s-.16,2.62-.33,5.89c0,.15-.02,.3-.02,.47-.01,.18-.03,.36-.04,.53-.03,.49-.06,.99-.08,1.48-.02,.38-.03,.75-.04,1.14-.01,.4-.02,.79-.03,1.18-.04,3.93,.24,7.98,.39,8.44Z"/>
            <path class="cls-12" d="M79.41,35.36c3.36,7.16,9.56,9.63,12.37,10.39l1.21-9.5-11.59-6-1.67-.78s-.16,2.62-.33,5.89Z"/>
          </g>
          <g>
            <path class="cls-3" d="M104.87,19.28c4.29,16.26-4.96,20.66-8.47,21.58-3.18,.84-14.13,3.28-20.08-12.44-5.95-15.73,.25-22.86,7.43-25.16,7.18-2.3,16.82-.24,21.11,16.02Z"/>
            <g>
              <path class="cls-12" d="M101.98,18.53c-.4,.03-.77-.01-1.16-.02-.45-.01-.8,.02-1.18-.25-.2-.14-.26-.51-.14-.72,.28-.49,.83-.61,1.37-.61,.58,0,1.03,.14,1.49,.5,.44,.35,.14,1.06-.38,1.1Z"/>
              <path class="cls-12" d="M90.47,20.17c.38-.12,.71-.29,1.07-.45,.41-.18,.75-.27,1.01-.67,.14-.21,.05-.57-.14-.72-.44-.35-1-.26-1.5-.07-.54,.21-.91,.51-1.2,1.01-.28,.49,.26,1.04,.76,.88Z"/>
              <g>
                <g>
                  <path class="cls-12" d="M93.51,22.89s-.08,.07-.06,.12c.28,1.11,.4,2.43-.53,3.02-.03,.02-.01,.07,.02,.06,1.2-.44,1.01-2.19,.57-3.2Z"/>
                  <path class="cls-12" d="M92.26,21.93c-1.83,.25-1.19,3.89,.5,3.66,1.67-.23,1.03-3.87-.5-3.66Z"/>
                </g>
                <path class="cls-12" d="M91.58,22.25c-.28,.26-.53,.68-.91,.78-.44,.12-.84-.2-1.19-.52-.04-.03-.06,0-.05,.05,.11,.7,.5,1.37,1.27,1.34,.7-.02,1.08-.73,1.13-1.46,0-.14-.14-.31-.25-.2Z"/>
              </g>
              <g>
                <g>
                  <path class="cls-12" d="M100.07,21.31s.1,.04,.1,.09c.15,1.14,.52,2.41,1.6,2.61,.03,0,.04,.06,0,.06-1.28,.03-1.74-1.66-1.71-2.76Z"/>
                  <path class="cls-12" d="M100.89,19.97c1.79-.44,2.54,3.18,.88,3.59-1.63,.4-2.38-3.22-.88-3.59Z"/>
                </g>
                <path class="cls-12" d="M101.69,20.05c.33,.13,.68,.42,1.03,.37,.4-.06,.61-.51,.79-.94,.02-.04,.05-.02,.06,.03,.16,.69,.08,1.46-.55,1.73-.58,.25-1.15-.26-1.46-.91-.06-.12,0-.34,.13-.28Z"/>
              </g>
              <path class="cls-12" d="M95.53,32.48c.31,.23,.62,.56,1.04,.54,.4-.02,.84-.26,1.18-.44,.03-.02,.08,.01,.06,.05-.24,.47-.82,.83-1.36,.8-.53-.02-.84-.44-1.02-.89-.03-.06,.06-.1,.1-.07Z"/>
              <path class="cls-12" d="M99.47,27.53s.55,1.64,.69,2.43c.01,.07-.17,.15-.44,.21-.01,0-.02,.01-.03,0-1.36,.48-2.86,.26-3.92-.73-.07-.07,.02-.17,.1-.13,1.19,.57,2.38,.56,3.63,.34,.02-.23-1.03-2.77-.9-2.81,.43-.12,1.34,.02,1.88,.07-1.04-3.44-2.62-6.69-3.6-10.14-.03-.12,.14-.19,.2-.09,1.9,3.29,3.18,7.23,4.34,10.75,.15,.44-1.59,.15-1.94,.07Z"/>
            </g>
            <g>
              <path class="cls-12" d="M76.49,29.32c3.51-2.16,3.25-6.05,3.25-6.05,4.38-2.48,6.48-6.33,6.69-6.72-.07,.36-.61,2.94-.92,4.25,10.41-3.16,12.81-11.66,12.81-11.66,3.83,3.06,4.76,5.19,5.38,6.23,0,0-.64-6.53-4.48-10.53-4.69-4.9-10.18-3.26-10.18-3.26,0,0-8.53-1.55-14.18,6.14-6.08,8.29,1.64,21.61,1.64,21.61Z"/>
              <path class="cls-12" d="M93.4,18.14c-1.59,1.14-3.4,1.99-5.23,2.61-.02,0-.02-.02,0-.02,2.9-1.18,5.42-3.05,7.28-5.58,.79-1.07,1.44-2.23,1.94-3.46,.52-1.29,1-2.81,.97-4.21,0-.11,.16-.11,.17,0,.04,1.48,.06,2.85-.38,4.28-.42,1.36-1.09,2.66-1.97,3.78-.79,1-1.73,1.87-2.76,2.61"/>
            </g>
            <g>
              <path class="cls-3" d="M79.25,28.98s-4.51-4.54-6.63-2.85c-2.12,1.7,1.9,8.72,4.83,9.27,2.93,.55,3.49-2.16,3.49-2.16l-1.69-4.26Z"/>
              <path class="cls-12" d="M73.81,28.12s-.04,.07,0,.08c2.07,.45,3.39,2.06,4.43,3.8-.7-.62-1.55-.87-2.39-.02-.04,.04,.02,.11,.07,.09,.76-.31,1.36-.27,2,.27,.46,.38,.81,.91,1.17,1.38,.12,.16,.42,.01,.32-.18,0-.01-.02-.03-.02-.04-.38-2.47-2.89-5.59-5.58-5.38Z"/>
            </g>
          </g>
        </g>
        <g>
          <g>
            <path class="cls-3" d="M66.51,57.11c-8.98,14.1-19.3,36.62-19.58,52.53-.14,7.77,13.3,14.84,18.19,12.48,11.51-5.54,27.52-18.29,33.83-26.69,2.23-2.97-21.59-22.91-23.33-19.35-1.7,3.47-2.83,5.65-4.58,7.02-.85,.67,4.21-9.81,6.75-24.46,3.48-20.02-8.02-6.63-11.28-1.52Z"/>
            <g>
              <path class="cls-11" d="M94.45,41.88s-3.73-4.62-.38-6.91c3.35-2.29,6.29,2.87,6.29,2.87l-5.91,4.04Z"/>
              <rect class="cls-10" x="105.46" y="36.04" width="7.16" height="41.74" transform="translate(-13.1 71.38) rotate(-34.31)"/>
              <rect class="cls-6" x="105.46" y="36.04" width="7.16" height="41.74" transform="translate(-13.1 71.38) rotate(-34.31)"/>
              <rect class="cls-4" x="93.44" y="39.34" width="8.36" height="1.66" transform="translate(-5.66 62.02) rotate(-34.31)"/>
              <rect class="cls-4" x="94.47" y="40.86" width="8.36" height="1.66" transform="translate(-6.33 62.87) rotate(-34.31)"/>
              <g>
                <path class="cls-1" d="M123.77,72.12l.68,5.77,.23,1.9-1.7-.9-5.13-2.74v-1.27s1.16,.45,1.18,.46v-1.27s1.16,.45,1.18,.46v-1.26s1.16,.45,1.18,.45v-1.26s1.16,.45,1.18,.45v-1.26s1.16,.45,1.18,.45Z"/>
                <polygon class="cls-4" points="124.44 77.9 124.68 79.8 122.97 78.9 124.44 77.9"/>
              </g>
            </g>
            <g>
              <path class="cls-3" d="M111.49,47.44c2.13,2.94-5.56,7.56-5.56,7.56,0,0,2.5-.17,4.34,1.38,2.1,1.78,.24,5.86,.24,5.86,0,0,2.57,.35,4.34,2.18,1.84,1.91,.54,6.29,.54,6.29,0,0,2.21,1.64,2.61,4.32,.68,4.6-5.09,8.83-8.14,12.15-3.27,3.56-9.67,6.96-12.16,9.54l-22.83-18.81s7.31-18.56,13.72-23.56c3.56-2.77,19.65-11.41,22.9-6.92Z"/>
              <g>
                <path class="cls-12" d="M105.81,54.96c-4.65,1.64-8.91,4.39-12.98,7.08-.09,.06,0,.2,.09,.14,4.02-2.73,8.87-4.45,12.99-7.01,.11-.07,.02-.25-.1-.21Z"/>
                <path class="cls-12" d="M110.18,62.02c-1.04,.4-1.95,1.15-2.84,1.8-.96,.71-1.91,1.43-2.84,2.17-1.87,1.48-3.72,3-5.51,4.57-.08,.07,0,.21,.09,.14,1.87-1.47,3.76-2.91,5.69-4.3,.97-.7,1.94-1.38,2.92-2.06,.91-.63,1.92-1.22,2.67-2.05,.11-.12-.02-.33-.18-.27Z"/>
                <path class="cls-12" d="M115.3,70.77c-.92,.31-1.73,1.15-2.47,1.76-.84,.69-1.68,1.38-2.53,2.06-1.69,1.36-3.39,2.72-5.13,4.03-.09,.07,0,.21,.09,.14,1.78-1.31,3.57-2.6,5.33-3.94,.87-.65,1.73-1.31,2.59-1.97,.73-.56,1.71-1.18,2.19-1.99,.03-.05-.03-.1-.07-.08Z"/>
              </g>
              <path class="cls-12" d="M87.33,55.48c1.02-1.22,2.71-3.13,6.82-4.51,.11-.04,.11,.03,0,.08-.6,.32-3.75,1.8-6.78,4.47-.03,.02-.07-.01-.04-.04Z"/>
            </g>
          </g>
          <g>
            <path class="cls-10" d="M100.08,99.62l-24.83-24.45-3.79,6.87s5.66-15.28,7.1-23.63c1.44-8.35,1.2-18.12-9.38-5.62-10.36,12.24-24.24,47.55-23.53,56.7,.71,9.15,12.35,14.69,18.21,13.64,5.86-1.05,36.22-23.51,36.22-23.51Z"/>
            <g>
              <path class="cls-12" d="M93.6,102.26c-3.47-3.29-17.17-17.27-19.93-20.49-.19-.22-.1-.4,.13-.19,10.63,9.61,16.68,17.14,19.92,20.54,.08,.09-.04,.23-.12,.14Z"/>
              <path class="cls-12" d="M53.7,106.81c1.34-2.32,2.9-4.55,4.39-6.79,1.49-2.25,2.98-4.5,4.56-6.7,1.58-2.21,3.26-4.35,4.94-6.5,.84-1.08,2.46-3.18,3.3-4.26,.83-1.06,.92-.81,.13,.35-.76,1.11-2.31,3.26-3.07,4.38-1.49,2.2-2.95,4.42-4.49,6.59-1.55,2.17-3.15,4.32-4.74,6.47-1.61,2.19-3.15,4.43-4.85,6.55-.07,.09-.22,.02-.16-.08Z"/>
              <path class="cls-12" d="M73.51,74.45c.87-2.52,1.9-5.03,2.57-7.62,.03-.1,.19-.06,.16,.04-.5,1.71-.89,3.44-1.33,5.16,.04-.07,.08-.14,.13-.21,.39-.66,.77-1.34,1.14-2.02,.05-.09,.19-.01,.14,.08-.34,.69-.68,1.39-1,2.1-.25,.55-.49,1.14-.85,1.64-.11,.37-.21,.75-.32,1.12-.8,2.5-1.71,5.06-2.86,7.43-.07,.15-.31,.05-.27-.11,.73-2.56,1.62-5.1,2.49-7.61Z"/>
              <path class="cls-12" d="M75.06,75.03c.08-.13,.69,.51,.98,.85,.05,.06-.02,.08-.09,.03-.2-.15-.43-.24-.61-.4-.58,1.16-3.81,6.63-4.03,6.87-.1,.11-.2,.01-.15-.14,.19-.6,3.2-6.02,3.91-7.21Z"/>
              <path class="cls-12" d="M72,118.87c7.16-5.23,14.47-10.3,21.93-15.08,2.04-1.31,3.98-2.72,5.99-4.09-.22-.15-2.24-2.29-2.3-2.36-.03-.04,.02-.1,.06-.06,.23,.19,2.81,2.28,2.98,2.52,.11,.14-7.49,5.33-11.08,7.87-3.62,2.56-7.36,4.95-11.08,7.35-2.12,1.36-4.26,2.7-6.41,4-.09,.05-.16-.08-.08-.13Z"/>
            </g>
          </g>
        </g>
        <g>
          <g>
            <polygon class="cls-9" points="153.47 108.13 116.01 111.37 129.35 61.81 166.81 58.57 153.47 108.13"/>
            <polygon class="cls-10" points="156.03 107.91 118.58 111.15 131.92 61.58 169.37 58.35 156.03 107.91"/>
            <path class="cls-5" d="M135.9,61.25c-.16,.77-.66,1.6-1.44,2.1-.34,.22-.48-.24-.14-.45,.49-.32,.83-.83,.98-1.33,.02-.09,.05-.19,.06-.27,.07-.33,.07-.65-.02-.92-.05-.14-.12-.24-.24-.31,0,0-.02,0-.03-.02-.02,0-.04,0-.05-.02-.02,0-.07,0-.07,0-.09-.01-.17,0-.26,.04-.15,.06-.29,.17-.41,.31-.15,.18-.23,.33-.33,.53-.06,.09-.09,.19-.14,.29l-.02,.07s-.03,.07-.04,.1c0,.02-.02,.04-.02,.07l-.53,.05c.09-.32,.24-.65,.43-.97,.33-.52,.8-.97,1.36-1.04,.5-.05,.8,.28,.9,.69,.09,.32,.08,.7-.01,1.08Z"/>
            <path class="cls-5" d="M138.83,60.99c-.16,.77-.66,1.6-1.44,2.1-.34,.22-.48-.24-.14-.45,.49-.32,.83-.83,.98-1.33,.02-.09,.05-.19,.06-.27,.07-.33,.07-.65-.02-.92-.05-.14-.12-.24-.24-.31,0,0-.02,0-.03-.02-.02,0-.04,0-.05-.02-.02,0-.07,0-.07,0-.09-.01-.17,0-.26,.04-.15,.06-.29,.17-.41,.31-.15,.18-.23,.33-.33,.53-.06,.09-.09,.19-.14,.29l-.02,.07s-.03,.07-.04,.1c0,.02-.02,.04-.02,.07l-.53,.05c.09-.32,.24-.65,.43-.97,.33-.52,.8-.97,1.36-1.04,.5-.05,.8,.28,.9,.69,.09,.32,.08,.7-.01,1.08Z"/>
            <path class="cls-5" d="M141.76,60.74c-.16,.77-.66,1.6-1.44,2.09-.34,.22-.48-.24-.14-.45,.49-.32,.83-.83,.98-1.33,.02-.09,.05-.19,.06-.27,.07-.33,.07-.65-.02-.92-.05-.14-.12-.24-.24-.31,0,0-.02,0-.03-.02-.02,0-.04,0-.05-.02-.02,0-.07,0-.07,0-.09-.01-.17,0-.26,.04-.15,.06-.29,.17-.41,.31-.15,.18-.23,.33-.33,.53-.06,.09-.09,.19-.14,.29l-.02,.07s-.03,.07-.04,.1c0,.02-.02,.04-.02,.07l-.53,.05c.09-.32,.24-.65,.43-.97,.33-.52,.8-.97,1.36-1.04,.5-.05,.8,.28,.9,.69,.09,.32,.08,.7-.01,1.08Z"/>
            <path class="cls-5" d="M144.69,60.49c-.16,.77-.66,1.6-1.44,2.09-.34,.22-.48-.24-.14-.45,.49-.32,.83-.83,.98-1.33,.02-.09,.05-.19,.06-.27,.07-.33,.07-.65-.02-.92-.05-.14-.12-.24-.24-.31,0,0-.02,0-.03-.02-.02,0-.04,0-.05-.02-.02,0-.07,0-.07,0-.09-.01-.17,0-.26,.04-.15,.06-.29,.17-.41,.31-.15,.18-.23,.33-.33,.53-.06,.09-.09,.19-.14,.29l-.02,.07s-.03,.07-.04,.1c0,.02-.02,.04-.02,.07l-.53,.05c.09-.32,.24-.65,.43-.97,.33-.52,.8-.97,1.36-1.04,.5-.05,.8,.28,.9,.69,.09,.32,.08,.7-.01,1.08Z"/>
            <path class="cls-5" d="M147.62,60.23c-.16,.77-.66,1.6-1.44,2.09-.34,.22-.48-.24-.14-.45,.49-.32,.83-.83,.98-1.33,.02-.09,.05-.19,.06-.27,.07-.33,.07-.65-.02-.92-.05-.14-.12-.24-.24-.31,0,0-.02,0-.03-.02-.02,0-.04,0-.05-.02-.02,0-.07,0-.07,0-.09-.01-.17,0-.26,.04-.15,.06-.29,.17-.41,.31-.15,.18-.23,.33-.33,.53-.06,.09-.09,.19-.14,.29l-.02,.07s-.03,.07-.04,.1c0,.02-.02,.04-.02,.07l-.53,.05c.09-.32,.24-.65,.43-.97,.33-.52,.8-.97,1.36-1.04,.5-.05,.8,.28,.9,.69,.09,.32,.08,.7-.01,1.08Z"/>
            <path class="cls-5" d="M150.56,59.98c-.16,.77-.66,1.6-1.44,2.1-.34,.22-.48-.24-.14-.45,.49-.32,.83-.83,.98-1.33,.02-.09,.05-.19,.06-.27,.07-.33,.07-.65-.02-.92-.05-.14-.12-.24-.24-.31,0,0-.02,0-.03-.02-.02,0-.04,0-.05-.02-.02,0-.07,0-.07,0-.09-.01-.17,0-.26,.04-.15,.06-.29,.17-.41,.31-.15,.18-.23,.33-.33,.53-.06,.09-.09,.19-.14,.29l-.02,.07s-.03,.07-.04,.1c0,.02-.02,.04-.02,.07l-.53,.05c.09-.32,.24-.65,.43-.97,.33-.52,.8-.97,1.36-1.04,.5-.05,.8,.28,.9,.69,.09,.32,.08,.7-.01,1.08Z"/>
            <path class="cls-5" d="M153.49,59.73c-.16,.77-.66,1.6-1.44,2.1-.34,.22-.48-.24-.14-.45,.49-.32,.83-.83,.98-1.33,.02-.09,.05-.19,.06-.27,.07-.33,.07-.65-.02-.92-.05-.14-.12-.24-.24-.31,0,0-.02,0-.03-.02-.02,0-.04,0-.05-.02-.02,0-.07,0-.07,0-.09-.01-.17,0-.26,.04-.15,.06-.29,.17-.41,.31-.15,.18-.23,.33-.33,.53-.06,.09-.09,.19-.14,.29l-.02,.07s-.03,.07-.04,.1c0,.02-.02,.04-.02,.07l-.53,.05c.09-.32,.24-.65,.43-.97,.33-.52,.8-.97,1.36-1.04,.5-.05,.8,.28,.9,.69,.09,.32,.08,.7-.01,1.08Z"/>
            <path class="cls-5" d="M156.42,59.47c-.16,.77-.66,1.6-1.44,2.1-.34,.22-.48-.24-.14-.45,.49-.32,.83-.83,.98-1.33,.02-.09,.05-.19,.06-.27,.07-.33,.07-.65-.02-.92-.05-.14-.12-.24-.24-.31,0,0-.02,0-.03-.02-.02,0-.04,0-.05-.02-.02,0-.07,0-.07,0-.09-.01-.17,0-.26,.04-.15,.06-.29,.17-.41,.31-.15,.18-.23,.33-.33,.53-.06,.09-.09,.19-.14,.29l-.02,.07s-.03,.07-.04,.1c0,.02-.02,.04-.02,.07l-.53,.05c.09-.32,.24-.65,.43-.97,.33-.52,.8-.97,1.36-1.04,.5-.05,.8,.28,.9,.69,.09,.32,.08,.7-.01,1.08Z"/>
            <path class="cls-5" d="M159.35,59.22c-.16,.77-.66,1.6-1.44,2.1-.34,.22-.48-.24-.14-.45,.49-.32,.83-.83,.98-1.33,.02-.09,.05-.19,.06-.27,.07-.33,.07-.65-.02-.92-.05-.14-.12-.24-.24-.31,0,0-.02,0-.03-.02-.02,0-.04,0-.05-.02-.02,0-.07,0-.07,0-.09-.01-.17,0-.26,.04-.15,.06-.29,.17-.41,.31-.15,.18-.23,.33-.33,.53-.06,.09-.09,.19-.14,.29l-.02,.07s-.03,.07-.04,.1c0,.02-.02,.04-.02,.07l-.53,.05c.09-.32,.24-.65,.43-.97,.33-.52,.8-.97,1.36-1.04,.5-.05,.8,.28,.9,.69,.09,.32,.08,.7-.01,1.08Z"/>
            <path class="cls-5" d="M162.28,58.97c-.16,.77-.66,1.6-1.44,2.1-.34,.22-.48-.24-.14-.45,.49-.32,.83-.83,.98-1.33,.02-.09,.05-.19,.06-.27,.07-.33,.07-.65-.02-.92-.05-.14-.12-.24-.24-.31,0,0-.02,0-.03-.02-.02,0-.04,0-.05-.02-.02,0-.07,0-.07,0-.09-.01-.17,0-.26,.04-.15,.06-.29,.17-.41,.31-.15,.18-.23,.33-.33,.53-.06,.09-.09,.19-.14,.29l-.02,.07s-.03,.07-.04,.1c0,.02-.02,.04-.02,.07l-.53,.05c.09-.32,.24-.65,.43-.97,.33-.52,.8-.97,1.36-1.04,.5-.05,.8,.28,.9,.69,.09,.32,.08,.7-.01,1.08Z"/>
            <path class="cls-5" d="M165.21,58.71c-.16,.77-.66,1.6-1.44,2.09-.34,.22-.48-.24-.14-.45,.49-.32,.83-.83,.98-1.33,.02-.09,.05-.19,.06-.27,.07-.33,.07-.65-.02-.92-.05-.14-.12-.24-.24-.31,0,0-.02,0-.03-.02-.02,0-.04,0-.05-.02-.02,0-.07,0-.07,0-.09-.01-.17,0-.26,.04-.15,.06-.29,.17-.41,.31-.15,.18-.23,.33-.33,.53-.06,.09-.09,.19-.14,.29l-.02,.07s-.03,.07-.04,.1c0,.02-.02,.04-.02,.07l-.53,.05c.09-.32,.24-.65,.43-.97,.33-.52,.8-.97,1.36-1.04,.5-.05,.8,.28,.9,.69,.09,.32,.08,.7-.01,1.08Z"/>
            <path class="cls-5" d="M168.15,58.46c-.16,.77-.66,1.6-1.44,2.09-.34,.22-.48-.24-.14-.45,.49-.32,.83-.83,.98-1.33,.02-.09,.05-.19,.06-.27,.07-.33,.07-.65-.02-.92-.05-.14-.12-.24-.24-.31,0,0-.02,0-.03-.02-.02,0-.04,0-.05-.02-.02,0-.07,0-.07,0-.09-.01-.17,0-.26,.04-.15,.06-.29,.17-.41,.31-.15,.18-.23,.33-.33,.53-.06,.09-.09,.19-.14,.29l-.02,.07s-.03,.07-.04,.1c0,.02-.02,.04-.02,.07l-.53,.05c.09-.32,.24-.65,.43-.97,.33-.52,.8-.97,1.36-1.04,.5-.05,.8,.28,.9,.69,.09,.32,.08,.7-.01,1.08Z"/>
          </g>
          <g>
            <path class="cls-3" d="M168.11,70.25c1.92,4.09,6.77,9.19,7.15,12.52,.35,3.01-2.16,4.06-2.16,4.06,0,0,3.32,1.68,3.17,4.76-.08,1.59-2.68,2.86-2.68,2.86,0,0,2.6,1.46,2.3,4.19-.24,2.18-2.82,3.13-2.82,3.13,0,0,1.84,2.56,.88,4.7-1.94,4.34-20.77,4.24-23.64-2.71-1.34-3.24,3.26-2.96,3.26-2.96,0,0-6.51-1.99-6.59-5.87-.08-3.88,5.87-3.16,5.87-3.16,0,0-6.3-1.98-5.97-6.02,.34-4.2,6.17-2.46,6.17-2.46,0,0-4.17-2.86-3.22-5.89,1.58-5,9.47,1.34,13.61,.38l2.32-6.81,2.36-.72Z"/>
            <path class="cls-3" d="M171.85,76.2c-1.48-4.03,3.53-8.98,2.68-13.04-1.16-5.49-7.36-.15-8.78,7.81v6.37s6.1-1.15,6.1-1.15Z"/>
            <g>
              <path class="cls-12" d="M172.68,101.98c.06,0,.08,.08,.02,.1-6.2,1.48-13.46,1.2-19.38-1.26-.19-.08-.15-.43,.08-.38,6.59,1.36,12.54,2.05,19.28,1.54Z"/>
              <path class="cls-12" d="M173.68,94.49c.07,0,.08,.12,0,.13-6.4,1.49-14.57,.95-21.06-2.69-.22-.12-.3-.46-.03-.34,4.5,2.09,15.02,3.37,21.08,2.89Z"/>
              <path class="cls-12" d="M152.65,82.88c6.36,3.24,13.12,4.12,20.19,4.03,.09,0,.08,.13,0,.15-3.45,.99-7.96,.58-11.45-.03-3.34-.59-6.23-1.79-8.87-3.92-.1-.08-.02-.29,.11-.22Z"/>
            </g>
          </g>
        </g>
      </g>
      <g>
        <g>
          <path class="cls-3" d="M312.37,188.29c-.87,2.35-43.43,55.25-46.33,56.24-1.1,.38-9.16-5.37-18.71-12.59-2.06-1.56-4.18-3.18-6.33-4.84-13.93-10.76-28.46-22.51-28.46-22.51l28.37-35.47,27.68,23.49,6.08,5.15s25.35-12.97,28.65-13.71c3.29-.74,9.92,1.91,9.05,4.25Z"/>
          <path class="cls-1" d="M312.37,188.29c-.87,2.35-43.43,55.25-46.33,56.24-1.34,.46-12.97-8.12-25.04-17.43l27.59-34.49,6.08,5.15s25.35-12.97,28.65-13.71c3.29-.74,9.92,1.91,9.05,4.25Z"/>
          <g>
            <path class="cls-10" d="M312.37,188.29c-.87,2.35-43.43,55.25-46.33,56.24-1.1,.38-9.16-5.37-18.71-12.59l27.34-34.19s25.35-12.97,28.65-13.71c3.29-.74,9.92,1.91,9.05,4.25Z"/>
            <g>
              <g>
                <path class="cls-12" d="M309.64,187.35c-7.35,8.69-36.18,44.45-42.79,53.6-.05,.07,0,.11,.06,.04,7.48-8.46,36.02-44.44,42.88-53.53,.14-.19,0-.3-.15-.12Z"/>
                <path class="cls-12" d="M298.68,185.91c-1.78,2.03-2.43,4.89-2.1,7.05,.32,2.07,1.25,4.37,3.14,5.79,.05,.04,.13-.06,.09-.11-3.06-3.3-3.57-8.91-1.01-12.64,.05-.08-.05-.16-.11-.09Z"/>
                <path class="cls-12" d="M278.32,195.02c-2.9,3.51-4.96,8.63-3.83,13.17,.04,.18,.29,.11,.32-.04,.93-4.54,2.15-8.58,4-12.85,.13-.3-.28-.54-.49-.29Z"/>
                <path class="cls-12" d="M281.59,193.14c-2.9,3.51-4.96,8.63-3.83,13.17,.04,.18,.29,.11,.32-.04,.93-4.54,2.15-8.58,4-12.85,.13-.3-.28-.54-.49-.29Z"/>
                <path class="cls-12" d="M284.86,191.26c-2.9,3.51-4.96,8.63-3.83,13.17,.04,.18,.29,.11,.32-.04,.93-4.54,2.15-8.58,4-12.85,.13-.3-.28-.54-.49-.29Z"/>
                <path class="cls-12" d="M288.14,189.38c-2.9,3.51-4.96,8.63-3.83,13.17,.04,.18,.29,.11,.32-.04,.93-4.54,2.15-8.58,4-12.85,.13-.3-.28-.54-.49-.29Z"/>
                <path class="cls-1" d="M260.24,231.91c-3.19,3.99,3.01,8.96,6.2,4.96,3.19-3.99-3.01-8.96-6.2-4.96Z"/>
              </g>
              <path class="cls-12" d="M271.93,183.57c-2.94,.6-3.3,4.03-2.64,6.39,1.06,3.81,3.58,7.87,6.48,10.53,.07,.07,.15,.03,.19-.03,.32,.13,.77,0,.8-.41,.28-3.93,1.08-8.1,.15-12.01-.54-2.28-2.2-5.03-4.97-4.47Zm4.04,10.42c-.09,1.94-.28,3.86-.3,5.8-1.26-2.06-2.6-4.05-3.65-6.23-.5-1.04-1-2.12-1.35-3.22-.55-1.71-.72-7.58,3.43-4.83,2.29,1.52,1.98,6.18,1.87,8.49Z"/>
              <path class="cls-12" d="M269.99,210.36c2.96-2.71,4.65-6.6,6.62-10.02,.2-.35-.1-.72-.43-.79,0-.07-.05-.15-.14-.13-3.89,.57-8.26,2.52-11.27,5.07-1.86,1.58-3.49,4.63-1.4,6.77,1.98,2.03,4.9,.68,6.63-.91Zm-3.74,.52c-4.98-.05-1.55-4.81-.13-5.92,.91-.71,1.93-1.33,2.93-1.91,2.09-1.22,4.32-2.11,6.52-3.11-1.07,1.62-1.99,3.31-3.01,4.97-1.2,1.97-3.57,6-6.31,5.97Z"/>
            </g>
          </g>
        </g>
        <g>
          <path class="cls-4" d="M267.11,187.25l-29.52,39.83-99.61-69.12-9.61-6.67s-2.72,1.83-6.81,4.09c-5.69,3.14-14.02,7.12-21.39,8.21-12.37,1.83-31.01,1.63-41.44-12.3-8.78-11.74-6.01-27.05-6.01-27.05l13.58-5.83s32.13-26.77,52.95-27.58c8.84-.35,21.71,6.35,33.64,13.35,11.91,6.99,114.23,83.07,114.23,83.07Z"/>
          <path class="cls-12" d="M128.37,151.29s-2.72,1.83-6.81,4.09c-7.24-8.66-22.56-24.4-23.03-24.96l29.84,20.87Z"/>
          <path class="cls-12" d="M78.06,109.45c-1.92,1.33-3.78,2.75-5.67,4.12-1.86,1.35-3.79,2.61-5.56,4.08-1.8,1.5-3.51,3.09-5.21,4.7-.82,.78-1.63,1.56-2.42,2.37-.78,.8-1.66,1.6-2.31,2.51-.06,.08,.06,.19,.14,.13,.92-.59,1.74-1.4,2.57-2.1,.9-.76,1.79-1.52,2.68-2.29,1.73-1.47,3.49-2.9,5.21-4.37,1.71-1.46,3.3-3.06,4.99-4.54,1.81-1.59,3.73-3.06,5.61-4.56,.04-.03,0-.09-.04-.06Z"/>
          <path class="cls-12" d="M260.18,185.82c-1.92,2.07-3.69,4.29-5.48,6.48-1.79,2.19-3.57,4.39-5.34,6.6-3.54,4.42-7.11,8.83-10.59,13.3-1.91,2.46-3.8,4.93-5.58,7.49-.08,.11,.1,.24,.19,.14,3.81-4.19,7.29-8.66,10.82-13.07,3.54-4.43,7.07-8.87,10.54-13.35,1.9-2.45,3.86-4.89,5.61-7.45,.07-.1-.09-.22-.17-.13Z"/>
          <path class="cls-12" d="M184.55,190.17c-4.96-3.91-16.22-11.53-21.36-15.2-5.11-3.65-10.22-7.3-15.41-10.84-1.49-1.02-2.99-2.01-4.49-3.01-1.5-1-3.06-1.92-4.53-2.95-.09-.06-.16,.08-.08,.14,1.35,.97,2.62,2.05,3.95,3.05,1.26,.96,2.52,1.93,3.79,2.87,2.49,1.84,5,3.65,7.51,5.46,5.09,3.68,10.22,7.31,15.4,10.86,2.94,2.02,12,7.98,15,9.9,.18,.11,.39-.17,.22-.3Z"/>
          <path class="cls-12" d="M215.81,149.01c-4.58-3.8-15.02-11.09-19.82-14.6-4.86-3.55-9.69-7.13-14.56-10.66-4.84-3.5-9.67-6.99-14.51-10.49-4.69-3.39-9.35-6.83-14.3-9.83-2.71-1.64-5.49-3.16-8.35-4.53-2.77-1.33-5.66-2.69-8.63-3.52-.09-.03-.14,.1-.06,.15,2.44,1.36,5,2.51,7.47,3.83,2.44,1.3,4.85,2.67,7.21,4.1,4.92,2.98,9.56,6.36,14.22,9.72,9.68,6.96,19.35,13.96,29.1,20.82,5.46,3.84,16.33,11.78,22,15.31,.18,.11,.38-.16,.22-.3Z"/>
        </g>
      </g>
    </g>
  </g>
</svg>