<?xml version="1.0" encoding="UTF-8"?>
<svg id="Layer_2" data-name="Layer 2" xmlns="http://www.w3.org/2000/svg" viewBox="0 0 217.05 286.8">
  <defs>
    <style>
      .cls-1 {
        fill: #dbdbdb;
      }

      .cls-2 {
        fill: #ebebeb;
      }

      .cls-3 {
        fill: #263238;
      }
    </style>
  </defs>
  <g id="Note_1" data-name="Note 1">
    <g>
      <path class="cls-2" d="M217.05,0V286.8H0V0H3.66l1.38,5.99,5.93,3.88v4.52h7V7.38h-5.4l.54-7.38h15.51l.46,7.38h-1.01v7.01h7V7.38h-3l.92-7.38h10.53l1.63,7.38v7.01h7.01V7.38h-2.65l1.55-7.38h11.83l.61,7.38h-1.25v7.01h7.01V7.38h-2.92V0h11.35l.3,2.2,1.55,5.17h-.18v7.01h7.01V7.38h-2.67l-.53-4.76-.35-2.62h15.23V2.74c0,.17,1.31,4.64,1.31,4.64h-2.9v7.01h7.01V7.38h-1.86V0h13.78l-.75,7.38h-1.08v7.01h7.01V7.38h-1.66l-.4-7.38h11.84l.48,7.38h-.17v7.01h7.01V7.38h-2.92l-2.08-7.38h14.76l.33,7.38v7.01h7.01V7.38h-2.94l-.84-7.38h11.84l2.03,9.81v4.57h7.01V7.38h-3.86l1.31-7.38h12.65V14.39h7.01V7.38h-4.36l-1.01-7.38h11.15l4.3,9.37v5.01h7.01V7.38h-4.79l-.38-7.38h16.12Z"/>
      <g>
        <rect class="cls-1" x="16.26" y="38.25" width="184.54" height=".75"/>
        <rect class="cls-1" x="16.26" y="48.17" width="184.54" height=".75"/>
        <rect class="cls-1" x="16.26" y="58.09" width="184.54" height=".75"/>
        <rect class="cls-1" x="16.26" y="68.01" width="184.54" height=".75"/>
        <rect class="cls-1" x="16.26" y="77.94" width="184.54" height=".75"/>
        <rect class="cls-1" x="16.26" y="87.86" width="184.54" height=".75"/>
        <rect class="cls-1" x="16.26" y="97.78" width="184.54" height=".75"/>
        <rect class="cls-1" x="16.26" y="107.7" width="184.54" height=".75"/>
        <rect class="cls-1" x="16.26" y="117.62" width="184.54" height=".75"/>
        <rect class="cls-1" x="16.26" y="127.54" width="184.54" height=".75"/>
        <rect class="cls-1" x="16.26" y="137.46" width="184.54" height=".75"/>
        <rect class="cls-1" x="16.26" y="147.39" width="184.54" height=".75"/>
        <rect class="cls-1" x="16.26" y="157.31" width="184.54" height=".75"/>
        <rect class="cls-1" x="16.26" y="167.23" width="184.54" height=".75"/>
        <rect class="cls-1" x="16.26" y="177.15" width="184.54" height=".75"/>
        <rect class="cls-1" x="16.26" y="187.07" width="184.54" height=".75"/>
        <rect class="cls-1" x="16.26" y="196.99" width="184.54" height=".75"/>
        <rect class="cls-1" x="16.26" y="206.91" width="184.54" height=".75"/>
        <rect class="cls-1" x="16.26" y="216.84" width="184.54" height=".75"/>
        <rect class="cls-1" x="16.26" y="226.76" width="184.54" height=".75"/>
        <rect class="cls-1" x="16.26" y="236.68" width="184.54" height=".75"/>
        <rect class="cls-1" x="16.26" y="246.6" width="184.54" height=".75"/>
        <rect class="cls-1" x="16.26" y="256.52" width="184.54" height=".75"/>
        <rect class="cls-1" x="16.26" y="266.44" width="184.54" height=".75"/>
      </g>
      <g>
        <polygon class="cls-3" points="22.43 45.62 43.95 45.38 65.48 45.24 108.53 45.13 151.58 45.24 173.1 45.38 194.63 45.62 173.1 45.87 151.58 46.01 108.53 46.12 65.48 46.01 43.95 45.87 22.43 45.62"/>
        <path class="cls-3" d="M22.43,55.55c10.6-.21,21.2-.3,31.8-.38l31.8-.12,31.8,.11,15.9,.14,15.9,.25-15.9,.25-15.9,.14-31.8,.11-31.8-.12c-10.6-.08-21.2-.18-31.8-.38Z"/>
        <polygon class="cls-3" points="22.43 65.47 43.95 65.22 65.48 65.08 108.53 64.97 151.58 65.08 173.1 65.22 194.63 65.47 173.1 65.71 151.58 65.85 108.53 65.97 65.48 65.85 43.95 65.71 22.43 65.47"/>
        <path class="cls-3" d="M22.43,75.39c6.94-.21,13.87-.3,20.81-.38l20.81-.12,20.81,.11,10.4,.14c3.47,.08,6.94,.13,10.4,.25-3.47,.11-6.94,.16-10.4,.25l-10.4,.14-20.81,.11-20.81-.12c-6.94-.08-13.87-.18-20.81-.38Z"/>
        <polygon class="cls-3" points="22.43 95.23 43.95 94.99 65.48 94.85 108.53 94.73 151.58 94.85 173.1 94.99 194.63 95.23 173.1 95.48 151.58 95.62 108.53 95.73 65.48 95.61 43.95 95.47 22.43 95.23"/>
        <path class="cls-3" d="M22.43,105.15c10.58-.21,21.17-.3,31.75-.38l31.75-.12,31.75,.11,15.87,.14,15.87,.25-15.87,.25-15.87,.14-31.75,.11-31.75-.12c-10.58-.08-21.17-.18-31.75-.38Z"/>
        <path class="cls-3" d="M22.43,115.07c11.76-.21,23.53-.3,35.29-.38l35.29-.12,35.29,.11,17.65,.14,17.65,.25-17.65,.25-17.65,.14-35.29,.11-35.29-.12c-11.76-.08-23.53-.18-35.29-.38Z"/>
        <path class="cls-3" d="M22.43,134.92c8.77-.21,17.53-.3,26.3-.38l26.3-.12,26.3,.11,13.15,.14,13.15,.25-13.15,.25-13.15,.14-26.3,.11-26.3-.12c-8.77-.08-17.53-.18-26.3-.38Z"/>
        <polygon class="cls-3" points="22.43 144.84 43.95 144.6 65.48 144.46 108.53 144.34 151.58 144.45 173.1 144.59 194.63 144.84 173.1 145.08 151.58 145.22 108.53 145.34 65.48 145.22 43.95 145.08 22.43 144.84"/>
        <path class="cls-3" d="M22.43,154.76c11.76-.21,23.53-.3,35.29-.38l35.29-.12,35.29,.11,17.65,.14,17.65,.25-17.65,.25-17.65,.14-35.29,.11-35.29-.12c-11.76-.08-23.53-.18-35.29-.38Z"/>
        <polygon class="cls-3" points="22.43 164.68 43.95 164.44 65.48 164.3 108.53 164.18 151.58 164.3 173.1 164.44 194.63 164.68 173.1 164.93 151.58 165.07 108.53 165.18 65.48 165.06 43.95 164.92 22.43 164.68"/>
        <path class="cls-3" d="M22.43,174.6c8.57-.21,17.15-.3,25.72-.38l25.72-.12,25.72,.11,12.86,.14,12.86,.25-12.86,.25-12.86,.14-25.72,.11-25.72-.12c-8.57-.08-17.15-.18-25.72-.38Z"/>
      </g>
    </g>
  </g>
</svg>