<?xml version="1.0" encoding="UTF-8"?>
<svg id="Layer_2" data-name="Layer 2" xmlns="http://www.w3.org/2000/svg" viewBox="0 0 416.63 273.11">
  <defs>
    <style>
      .cls-1 {
        fill: #dbdbdb;
      }

      .cls-2 {
        fill: none;
        stroke: #c7c7c7;
        stroke-miterlimit: 10;
      }

      .cls-3 {
        fill: #ebebeb;
      }
    </style>
  </defs>
  <g id="Background_Complete" data-name="Background Complete">
    <g>
      <path class="cls-3" d="M50.29,258.56l-13.12,.28-6.66,.11c-2.23,.05-4.46,.04-6.69,.06h-.44s0-.45,0-.45l-.05-11.19v-.5s.5,0,.5,0l13.24,.06c4.41,0,8.83,.11,13.24,.16h.28s0,.27,0,.27c-.02,1.9-.09,3.79-.13,5.65l-.14,5.54Zm0,0l-.14-5.65c-.05-1.86-.11-3.7-.13-5.54l.27,.27c-4.41,.05-8.83,.16-13.24,.16l-13.24,.06,.5-.5-.05,11.19-.45-.45c2.18,.02,4.36,0,6.55,.06l6.58,.11,13.36,.28Z"/>
      <path class="cls-3" d="M35.52,272.67l-13.12,.28-6.66,.11c-2.23,.05-4.46,.04-6.69,.06h-.44s0-.45,0-.45l-.05-11.19v-.5s.5,0,.5,0l13.24,.06c4.41,0,8.83,.11,13.24,.16h.28s0,.27,0,.27c-.02,1.9-.09,3.79-.13,5.65l-.14,5.54Zm0,0l-.14-5.65c-.05-1.86-.11-3.7-.13-5.54l.27,.27c-4.41,.05-8.83,.16-13.24,.16l-13.24,.06,.5-.5-.05,11.19-.45-.45c2.18,.02,4.36,0,6.55,.06l6.58,.11,13.36,.28Z"/>
      <path class="cls-3" d="M189.76,207.46l-13.12,.28-6.66,.11c-2.23,.05-4.46,.04-6.69,.06h-.44s0-.45,0-.45l-.05-11.19v-.5s.5,0,.5,0l13.24,.06c4.41,0,8.83,.11,13.24,.16h.28s0,.27,0,.27c-.02,1.9-.09,3.79-.13,5.65l-.14,5.54Zm0,0l-.14-5.65c-.05-1.86-.11-3.7-.13-5.54l.27,.27c-4.41,.05-8.83,.16-13.24,.16l-13.24,.06,.5-.5-.05,11.19-.45-.45c2.18,.02,4.36,0,6.55,.06l6.58,.11,13.36,.28Z"/>
      <path class="cls-3" d="M174.99,221.57l-13.12,.28-6.66,.11c-2.23,.05-4.46,.04-6.69,.06h-.44s0-.45,0-.45l-.05-11.19v-.5s.5,0,.5,0l13.24,.06c4.41,0,8.83,.11,13.24,.16h.28s0,.27,0,.27c-.02,1.9-.09,3.79-.13,5.65l-.14,5.54Zm0,0l-.14-5.65c-.05-1.86-.11-3.7-.13-5.54l.27,.27c-4.41,.05-8.83,.16-13.24,.16l-13.24,.06,.5-.5-.05,11.19-.45-.45c2.18,.02,4.36,0,6.55,.06l6.58,.11,13.36,.28Z"/>
      <path class="cls-3" d="M204.76,221.57l-13.12,.28-6.66,.11c-2.23,.05-4.46,.04-6.69,.06h-.44s0-.45,0-.45l-.05-11.19v-.5s.5,0,.5,0l13.24,.06c4.41,0,8.83,.11,13.24,.16h.28s0,.27,0,.27c-.02,1.9-.09,3.79-.13,5.65l-.14,5.54Zm0,0l-.14-5.65c-.05-1.86-.11-3.7-.13-5.54l.27,.27c-4.41,.05-8.83,.16-13.24,.16l-13.24,.06,.5-.5-.05,11.19-.45-.45c2.18,.02,4.36,0,6.55,.06l6.58,.11,13.36,.28Z"/>
      <path class="cls-3" d="M416.36,272.67l-13.12,.28-6.66,.11c-2.23,.05-4.46,.04-6.69,.06h-.44s0-.45,0-.45l-.05-11.19v-.5s.5,0,.5,0l13.24,.06c4.41,0,8.83,.11,13.24,.16h.28s0,.27,0,.27c-.02,1.9-.09,3.79-.13,5.65l-.14,5.54Zm0,0l-.14-5.65c-.05-1.86-.11-3.7-.13-5.54l.27,.27c-4.41,.05-8.83,.16-13.24,.16l-13.24,.06,.5-.5-.05,11.19-.45-.45c2.18,.02,4.36,0,6.55,.06l6.58,.11,13.36,.28Z"/>
      <path class="cls-3" d="M401.58,54.2l-13.12,.28-6.66,.11c-2.23,.05-4.46,.04-6.69,.06h-.44s0-.45,0-.45l-.05-11.19v-.5s.5,0,.5,0l13.24,.06c4.41,0,8.83,.11,13.24,.16h.28s0,.27,0,.27c-.02,1.9-.09,3.79-.13,5.65l-.14,5.54Zm0,0l-.14-5.65c-.05-1.86-.11-3.7-.13-5.54l.27,.27c-4.41,.05-8.83,.16-13.24,.16l-13.24,.06,.5-.5-.05,11.19-.45-.45c2.18,.02,4.36,0,6.55,.06l6.58,.11,13.36,.28Z"/>
      <path class="cls-3" d="M416.36,68.31l-13.12,.28-6.66,.11c-2.23,.05-4.46,.04-6.69,.05h-.44s0-.45,0-.45l-.05-11.19v-.5s.5,0,.5,0l13.24,.06c4.41,0,8.83,.11,13.24,.16h.28s0,.27,0,.27c-.02,1.9-.09,3.79-.13,5.65l-.14,5.54Zm0,0l-.14-5.65c-.05-1.86-.11-3.7-.13-5.54l.27,.27c-4.41,.05-8.83,.16-13.24,.16l-13.24,.06,.5-.5-.05,11.19-.45-.45c2.18,.02,4.36,0,6.55,.06l6.58,.11,13.36,.28Z"/>
      <path class="cls-3" d="M50.29,54.2l-13.12,.28-6.66,.11c-2.23,.05-4.46,.04-6.69,.06h-.44s0-.45,0-.45l-.05-11.19v-.5s.5,0,.5,0l13.24,.06c4.41,0,8.83,.11,13.24,.16h.28s0,.27,0,.27c-.02,1.9-.09,3.79-.13,5.65l-.14,5.54Zm0,0l-.14-5.65c-.05-1.86-.11-3.7-.13-5.54l.27,.27c-4.41,.05-8.83,.16-13.24,.16l-13.24,.06,.5-.5-.05,11.19-.45-.45c2.18,.02,4.36,0,6.55,.06l6.58,.11,13.36,.28Z"/>
    </g>
    <g>
      <g>
        <line class="cls-2" x1="41.4" y1="94.49" x2="41.4"/>
        <g>
          <polygon class="cls-3" points="82.8 134.4 79.47 141.72 3.32 141.72 0 134.4 32.42 111.96 50.38 111.96 82.8 134.4"/>
          <polygon class="cls-1" points="52.63 90.34 50.38 111.96 32.42 111.96 30.17 90.34 52.63 90.34"/>
          <polygon class="cls-1" points="82.8 134.4 79.47 141.72 3.32 141.72 0 134.4 82.8 134.4"/>
        </g>
      </g>
      <g>
        <line class="cls-2" x1="130.3" y1="70.87" x2="130.3"/>
        <g>
          <polygon class="cls-3" points="171.7 110.78 168.37 118.1 92.22 118.1 88.9 110.78 121.32 88.34 139.28 88.34 171.7 110.78"/>
          <polygon class="cls-1" points="141.53 66.72 139.28 88.34 121.32 88.34 119.07 66.72 141.53 66.72"/>
          <polygon class="cls-1" points="171.69 110.79 168.36 118.11 92.21 118.11 88.89 110.79 171.69 110.79"/>
        </g>
      </g>
    </g>
  </g>
</svg>