<svg xmlns="http://www.w3.org/2000/svg" version="1.1" xmlns:xlink="http://www.w3.org/1999/xlink" xmlns:svgjs="http://svgjs.dev/svgjs" width="1440" height="560" preserveAspectRatio="none" viewBox="0 0 1440 560"><g mask="url(&quot;#SvgjsMask1027&quot;)" fill="none"><rect width="1440" height="560" x="0" y="0" fill="#0e2a47"></rect><path d="M51.07 257.68L132.48 304.68L132.48 398.68L51.07 445.68L-30.34 398.68L-30.34 304.68zM539.52 539.68L620.93 586.68L620.93 680.68L539.52 727.68L458.11 680.68L458.11 586.68zM865.16 -24.32L946.57 22.68L946.57 116.68L865.16 163.68L783.75 116.68L783.75 22.68z" stroke="rgba(27, 35, 117, 1)" stroke-width="2"></path><path d="M41.67 257.68 a9.4 9.4 0 1 0 18.8 0 a9.4 9.4 0 1 0 -18.8 0zM123.08 304.68 a9.4 9.4 0 1 0 18.8 0 a9.4 9.4 0 1 0 -18.8 0zM123.08 398.68 a9.4 9.4 0 1 0 18.8 0 a9.4 9.4 0 1 0 -18.8 0zM41.67 445.68 a9.4 9.4 0 1 0 18.8 0 a9.4 9.4 0 1 0 -18.8 0zM-39.74 398.68 a9.4 9.4 0 1 0 18.8 0 a9.4 9.4 0 1 0 -18.8 0zM-39.74 304.68 a9.4 9.4 0 1 0 18.8 0 a9.4 9.4 0 1 0 -18.8 0zM530.12 539.68 a9.4 9.4 0 1 0 18.8 0 a9.4 9.4 0 1 0 -18.8 0zM611.53 586.68 a9.4 9.4 0 1 0 18.8 0 a9.4 9.4 0 1 0 -18.8 0zM611.53 680.68 a9.4 9.4 0 1 0 18.8 0 a9.4 9.4 0 1 0 -18.8 0zM530.12 727.68 a9.4 9.4 0 1 0 18.8 0 a9.4 9.4 0 1 0 -18.8 0zM448.71 680.68 a9.4 9.4 0 1 0 18.8 0 a9.4 9.4 0 1 0 -18.8 0zM448.71 586.68 a9.4 9.4 0 1 0 18.8 0 a9.4 9.4 0 1 0 -18.8 0zM855.76 -24.32 a9.4 9.4 0 1 0 18.8 0 a9.4 9.4 0 1 0 -18.8 0zM937.17 22.68 a9.4 9.4 0 1 0 18.8 0 a9.4 9.4 0 1 0 -18.8 0zM937.17 116.68 a9.4 9.4 0 1 0 18.8 0 a9.4 9.4 0 1 0 -18.8 0zM855.76 163.68 a9.4 9.4 0 1 0 18.8 0 a9.4 9.4 0 1 0 -18.8 0zM774.35 116.68 a9.4 9.4 0 1 0 18.8 0 a9.4 9.4 0 1 0 -18.8 0zM774.35 22.68 a9.4 9.4 0 1 0 18.8 0 a9.4 9.4 0 1 0 -18.8 0z" fill="rgba(27, 35, 117, 1)"></path><path d="M126.58 374.17L189.8 410.67L189.8 483.67L126.58 520.17L63.36 483.67L63.36 410.67zM316.25 264.67L379.47 301.17L379.47 374.17L316.25 410.67L253.03 374.17L253.03 301.17zM253.03 374.17L316.25 410.67L316.25 483.67L253.03 520.17L189.8 483.67L189.8 410.67zM442.69 264.67L505.91 301.17L505.91 374.17L442.69 410.67L379.47 374.17L379.47 301.17zM442.69 483.67L505.91 520.17L505.91 593.17L442.69 629.67L379.47 593.17L379.47 520.17zM632.36 -63.83L695.58 -27.33L695.58 45.67L632.36 82.17L569.13 45.67L569.13 -27.33zM758.8 -63.83L822.02 -27.33L822.02 45.67L758.8 82.17L695.58 45.67L695.58 -27.33zM822.02 264.67L885.24 301.17L885.24 374.17L822.02 410.67L758.8 374.17L758.8 301.17zM822.02 483.67L885.24 520.17L885.24 593.17L822.02 629.67L758.8 593.17L758.8 520.17zM1011.69 374.17L1074.91 410.67L1074.91 483.67L1011.69 520.17L948.46 483.67L948.46 410.67zM1074.91 483.67L1138.13 520.17L1138.13 593.17L1074.91 629.67L1011.69 593.17L1011.69 520.17zM1201.35 45.67L1264.57 82.17L1264.57 155.17L1201.35 191.67L1138.13 155.17L1138.13 82.17zM1327.79 264.67L1391.02 301.17L1391.02 374.17L1327.79 410.67L1264.57 374.17L1264.57 301.17z" stroke="#03305d" stroke-width="2"></path><path d="M119.28 374.17 a7.3 7.3 0 1 0 14.6 0 a7.3 7.3 0 1 0 -14.6 0zM182.5 410.67 a7.3 7.3 0 1 0 14.6 0 a7.3 7.3 0 1 0 -14.6 0zM182.5 483.67 a7.3 7.3 0 1 0 14.6 0 a7.3 7.3 0 1 0 -14.6 0zM119.28 520.17 a7.3 7.3 0 1 0 14.6 0 a7.3 7.3 0 1 0 -14.6 0zM56.06 483.67 a7.3 7.3 0 1 0 14.6 0 a7.3 7.3 0 1 0 -14.6 0zM56.06 410.67 a7.3 7.3 0 1 0 14.6 0 a7.3 7.3 0 1 0 -14.6 0zM308.95 264.67 a7.3 7.3 0 1 0 14.6 0 a7.3 7.3 0 1 0 -14.6 0zM372.17 301.17 a7.3 7.3 0 1 0 14.6 0 a7.3 7.3 0 1 0 -14.6 0zM372.17 374.17 a7.3 7.3 0 1 0 14.6 0 a7.3 7.3 0 1 0 -14.6 0zM308.95 410.67 a7.3 7.3 0 1 0 14.6 0 a7.3 7.3 0 1 0 -14.6 0zM245.73 374.17 a7.3 7.3 0 1 0 14.6 0 a7.3 7.3 0 1 0 -14.6 0zM245.73 301.17 a7.3 7.3 0 1 0 14.6 0 a7.3 7.3 0 1 0 -14.6 0zM308.95 483.67 a7.3 7.3 0 1 0 14.6 0 a7.3 7.3 0 1 0 -14.6 0zM245.73 520.17 a7.3 7.3 0 1 0 14.6 0 a7.3 7.3 0 1 0 -14.6 0zM435.39 264.67 a7.3 7.3 0 1 0 14.6 0 a7.3 7.3 0 1 0 -14.6 0zM498.61 301.17 a7.3 7.3 0 1 0 14.6 0 a7.3 7.3 0 1 0 -14.6 0zM498.61 374.17 a7.3 7.3 0 1 0 14.6 0 a7.3 7.3 0 1 0 -14.6 0zM435.39 410.67 a7.3 7.3 0 1 0 14.6 0 a7.3 7.3 0 1 0 -14.6 0zM435.39 483.67 a7.3 7.3 0 1 0 14.6 0 a7.3 7.3 0 1 0 -14.6 0zM498.61 520.17 a7.3 7.3 0 1 0 14.6 0 a7.3 7.3 0 1 0 -14.6 0zM498.61 593.17 a7.3 7.3 0 1 0 14.6 0 a7.3 7.3 0 1 0 -14.6 0zM435.39 629.67 a7.3 7.3 0 1 0 14.6 0 a7.3 7.3 0 1 0 -14.6 0zM372.17 593.17 a7.3 7.3 0 1 0 14.6 0 a7.3 7.3 0 1 0 -14.6 0zM372.17 520.17 a7.3 7.3 0 1 0 14.6 0 a7.3 7.3 0 1 0 -14.6 0zM625.06 -63.83 a7.3 7.3 0 1 0 14.6 0 a7.3 7.3 0 1 0 -14.6 0zM688.28 -27.33 a7.3 7.3 0 1 0 14.6 0 a7.3 7.3 0 1 0 -14.6 0zM688.28 45.67 a7.3 7.3 0 1 0 14.6 0 a7.3 7.3 0 1 0 -14.6 0zM625.06 82.17 a7.3 7.3 0 1 0 14.6 0 a7.3 7.3 0 1 0 -14.6 0zM561.83 45.67 a7.3 7.3 0 1 0 14.6 0 a7.3 7.3 0 1 0 -14.6 0zM561.83 -27.33 a7.3 7.3 0 1 0 14.6 0 a7.3 7.3 0 1 0 -14.6 0zM751.5 -63.83 a7.3 7.3 0 1 0 14.6 0 a7.3 7.3 0 1 0 -14.6 0zM814.72 -27.33 a7.3 7.3 0 1 0 14.6 0 a7.3 7.3 0 1 0 -14.6 0zM814.72 45.67 a7.3 7.3 0 1 0 14.6 0 a7.3 7.3 0 1 0 -14.6 0zM751.5 82.17 a7.3 7.3 0 1 0 14.6 0 a7.3 7.3 0 1 0 -14.6 0zM814.72 264.67 a7.3 7.3 0 1 0 14.6 0 a7.3 7.3 0 1 0 -14.6 0zM877.94 301.17 a7.3 7.3 0 1 0 14.6 0 a7.3 7.3 0 1 0 -14.6 0zM877.94 374.17 a7.3 7.3 0 1 0 14.6 0 a7.3 7.3 0 1 0 -14.6 0zM814.72 410.67 a7.3 7.3 0 1 0 14.6 0 a7.3 7.3 0 1 0 -14.6 0zM751.5 374.17 a7.3 7.3 0 1 0 14.6 0 a7.3 7.3 0 1 0 -14.6 0zM751.5 301.17 a7.3 7.3 0 1 0 14.6 0 a7.3 7.3 0 1 0 -14.6 0zM814.72 483.67 a7.3 7.3 0 1 0 14.6 0 a7.3 7.3 0 1 0 -14.6 0zM877.94 520.17 a7.3 7.3 0 1 0 14.6 0 a7.3 7.3 0 1 0 -14.6 0zM877.94 593.17 a7.3 7.3 0 1 0 14.6 0 a7.3 7.3 0 1 0 -14.6 0zM814.72 629.67 a7.3 7.3 0 1 0 14.6 0 a7.3 7.3 0 1 0 -14.6 0zM751.5 593.17 a7.3 7.3 0 1 0 14.6 0 a7.3 7.3 0 1 0 -14.6 0zM751.5 520.17 a7.3 7.3 0 1 0 14.6 0 a7.3 7.3 0 1 0 -14.6 0zM1004.39 374.17 a7.3 7.3 0 1 0 14.6 0 a7.3 7.3 0 1 0 -14.6 0zM1067.61 410.67 a7.3 7.3 0 1 0 14.6 0 a7.3 7.3 0 1 0 -14.6 0zM1067.61 483.67 a7.3 7.3 0 1 0 14.6 0 a7.3 7.3 0 1 0 -14.6 0zM1004.39 520.17 a7.3 7.3 0 1 0 14.6 0 a7.3 7.3 0 1 0 -14.6 0zM941.16 483.67 a7.3 7.3 0 1 0 14.6 0 a7.3 7.3 0 1 0 -14.6 0zM941.16 410.67 a7.3 7.3 0 1 0 14.6 0 a7.3 7.3 0 1 0 -14.6 0zM1130.83 520.17 a7.3 7.3 0 1 0 14.6 0 a7.3 7.3 0 1 0 -14.6 0zM1130.83 593.17 a7.3 7.3 0 1 0 14.6 0 a7.3 7.3 0 1 0 -14.6 0zM1067.61 629.67 a7.3 7.3 0 1 0 14.6 0 a7.3 7.3 0 1 0 -14.6 0zM1004.39 593.17 a7.3 7.3 0 1 0 14.6 0 a7.3 7.3 0 1 0 -14.6 0zM1194.05 45.67 a7.3 7.3 0 1 0 14.6 0 a7.3 7.3 0 1 0 -14.6 0zM1257.27 82.17 a7.3 7.3 0 1 0 14.6 0 a7.3 7.3 0 1 0 -14.6 0zM1257.27 155.17 a7.3 7.3 0 1 0 14.6 0 a7.3 7.3 0 1 0 -14.6 0zM1194.05 191.67 a7.3 7.3 0 1 0 14.6 0 a7.3 7.3 0 1 0 -14.6 0zM1130.83 155.17 a7.3 7.3 0 1 0 14.6 0 a7.3 7.3 0 1 0 -14.6 0zM1130.83 82.17 a7.3 7.3 0 1 0 14.6 0 a7.3 7.3 0 1 0 -14.6 0zM1320.49 264.67 a7.3 7.3 0 1 0 14.6 0 a7.3 7.3 0 1 0 -14.6 0zM1383.72 301.17 a7.3 7.3 0 1 0 14.6 0 a7.3 7.3 0 1 0 -14.6 0zM1383.72 374.17 a7.3 7.3 0 1 0 14.6 0 a7.3 7.3 0 1 0 -14.6 0zM1320.49 410.67 a7.3 7.3 0 1 0 14.6 0 a7.3 7.3 0 1 0 -14.6 0zM1257.27 374.17 a7.3 7.3 0 1 0 14.6 0 a7.3 7.3 0 1 0 -14.6 0zM1257.27 301.17 a7.3 7.3 0 1 0 14.6 0 a7.3 7.3 0 1 0 -14.6 0z" fill="#03305d"></path><path d="M55.97 19.59L85.41 36.59L85.41 70.59L55.97 87.59L26.52 70.59L26.52 36.59zM26.52 70.59L55.97 87.59L55.97 121.59L26.52 138.59L-2.93 121.59L-2.93 87.59zM55.97 121.59L85.41 138.59L85.41 172.59L55.97 189.59L26.52 172.59L26.52 138.59zM55.97 223.59L85.41 240.59L85.41 274.59L55.97 291.59L26.52 274.59L26.52 240.59zM26.52 274.59L55.97 291.59L55.97 325.59L26.52 342.59L-2.93 325.59L-2.93 291.59zM114.86 223.59L144.3 240.59L144.3 274.59L114.86 291.59L85.41 274.59L85.41 240.59zM114.86 529.59L144.3 546.59L144.3 580.59L114.86 597.59L85.41 580.59L85.41 546.59zM232.64 223.59L262.09 240.59L262.09 274.59L232.64 291.59L203.19 274.59L203.19 240.59zM232.64 325.59L262.09 342.59L262.09 376.59L232.64 393.59L203.19 376.59L203.19 342.59zM291.53 427.59L320.98 444.59L320.98 478.59L291.53 495.59L262.09 478.59L262.09 444.59zM320.98 -31.41L350.42 -14.41L350.42 19.59L320.98 36.59L291.53 19.59L291.53 -14.41zM320.98 70.59L350.42 87.59L350.42 121.59L320.98 138.59L291.53 121.59L291.53 87.59zM350.42 223.59L379.87 240.59L379.87 274.59L350.42 291.59L320.98 274.59L320.98 240.59zM350.42 529.59L379.87 546.59L379.87 580.59L350.42 597.59L320.98 580.59L320.98 546.59zM409.31 121.59L438.76 138.59L438.76 172.59L409.31 189.59L379.87 172.59L379.87 138.59zM379.87 172.59L409.31 189.59L409.31 223.59L379.87 240.59L350.42 223.59L350.42 189.59zM409.31 223.59L438.76 240.59L438.76 274.59L409.31 291.59L379.87 274.59L379.87 240.59zM468.21 19.59L497.65 36.59L497.65 70.59L468.21 87.59L438.76 70.59L438.76 36.59zM438.76 478.59L468.21 495.59L468.21 529.59L438.76 546.59L409.31 529.59L409.31 495.59zM468.21 529.59L497.65 546.59L497.65 580.59L468.21 597.59L438.76 580.59L438.76 546.59zM527.1 19.59L556.54 36.59L556.54 70.59L527.1 87.59L497.65 70.59L497.65 36.59zM497.65 70.59L527.1 87.59L527.1 121.59L497.65 138.59L468.21 121.59L468.21 87.59zM527.1 325.59L556.54 342.59L556.54 376.59L527.1 393.59L497.65 376.59L497.65 342.59zM556.54 70.59L585.99 87.59L585.99 121.59L556.54 138.59L527.1 121.59L527.1 87.59zM585.99 121.59L615.43 138.59L615.43 172.59L585.99 189.59L556.54 172.59L556.54 138.59zM615.43 -31.41L644.88 -14.41L644.88 19.59L615.43 36.59L585.99 19.59L585.99 -14.41zM615.43 70.59L644.88 87.59L644.88 121.59L615.43 138.59L585.99 121.59L585.99 87.59zM644.88 121.59L674.33 138.59L674.33 172.59L644.88 189.59L615.43 172.59L615.43 138.59zM703.77 121.59L733.22 138.59L733.22 172.59L703.77 189.59L674.33 172.59L674.33 138.59zM762.66 19.59L792.11 36.59L792.11 70.59L762.66 87.59L733.22 70.59L733.22 36.59zM733.22 172.59L762.66 189.59L762.66 223.59L733.22 240.59L703.77 223.59L703.77 189.59zM733.22 478.59L762.66 495.59L762.66 529.59L733.22 546.59L703.77 529.59L703.77 495.59zM821.55 121.59L851 138.59L851 172.59L821.55 189.59L792.11 172.59L792.11 138.59zM792.11 274.59L821.55 291.59L821.55 325.59L792.11 342.59L762.66 325.59L762.66 291.59zM792.11 478.59L821.55 495.59L821.55 529.59L792.11 546.59L762.66 529.59L762.66 495.59zM821.55 529.59L851 546.59L851 580.59L821.55 597.59L792.11 580.59L792.11 546.59zM851 172.59L880.45 189.59L880.45 223.59L851 240.59L821.55 223.59L821.55 189.59zM851 376.59L880.45 393.59L880.45 427.59L851 444.59L821.55 427.59L821.55 393.59zM880.45 427.59L909.89 444.59L909.89 478.59L880.45 495.59L851 478.59L851 444.59zM909.89 -31.41L939.34 -14.41L939.34 19.59L909.89 36.59L880.45 19.59L880.45 -14.41zM939.34 19.59L968.78 36.59L968.78 70.59L939.34 87.59L909.89 70.59L909.89 36.59zM909.89 70.59L939.34 87.59L939.34 121.59L909.89 138.59L880.45 121.59L880.45 87.59zM939.34 223.59L968.78 240.59L968.78 274.59L939.34 291.59L909.89 274.59L909.89 240.59zM939.34 427.59L968.78 444.59L968.78 478.59L939.34 495.59L909.89 478.59L909.89 444.59zM939.34 529.59L968.78 546.59L968.78 580.59L939.34 597.59L909.89 580.59L909.89 546.59zM968.78 172.59L998.23 189.59L998.23 223.59L968.78 240.59L939.34 223.59L939.34 189.59zM998.23 325.59L1027.67 342.59L1027.67 376.59L998.23 393.59L968.78 376.59L968.78 342.59zM1057.12 427.59L1086.57 444.59L1086.57 478.59L1057.12 495.59L1027.67 478.59L1027.67 444.59zM1086.57 -31.41L1116.01 -14.41L1116.01 19.59L1086.57 36.59L1057.12 19.59L1057.12 -14.41zM1116.01 427.59L1145.46 444.59L1145.46 478.59L1116.01 495.59L1086.57 478.59L1086.57 444.59zM1145.46 172.59L1174.9 189.59L1174.9 223.59L1145.46 240.59L1116.01 223.59L1116.01 189.59zM1145.46 274.59L1174.9 291.59L1174.9 325.59L1145.46 342.59L1116.01 325.59L1116.01 291.59zM1233.79 19.59L1263.24 36.59L1263.24 70.59L1233.79 87.59L1204.35 70.59L1204.35 36.59zM1233.79 223.59L1263.24 240.59L1263.24 274.59L1233.79 291.59L1204.35 274.59L1204.35 240.59zM1233.79 325.59L1263.24 342.59L1263.24 376.59L1233.79 393.59L1204.35 376.59L1204.35 342.59zM1233.79 529.59L1263.24 546.59L1263.24 580.59L1233.79 597.59L1204.35 580.59L1204.35 546.59zM1292.69 19.59L1322.13 36.59L1322.13 70.59L1292.69 87.59L1263.24 70.59L1263.24 36.59zM1263.24 274.59L1292.69 291.59L1292.69 325.59L1263.24 342.59L1233.79 325.59L1233.79 291.59zM1322.13 376.59L1351.58 393.59L1351.58 427.59L1322.13 444.59L1292.69 427.59L1292.69 393.59zM1351.58 427.59L1381.02 444.59L1381.02 478.59L1351.58 495.59L1322.13 478.59L1322.13 444.59zM1351.58 529.59L1381.02 546.59L1381.02 580.59L1351.58 597.59L1322.13 580.59L1322.13 546.59zM1381.02 376.59L1410.47 393.59L1410.47 427.59L1381.02 444.59L1351.58 427.59L1351.58 393.59zM1410.47 427.59L1439.91 444.59L1439.91 478.59L1410.47 495.59L1381.02 478.59L1381.02 444.59zM1469.36 325.59L1498.8 342.59L1498.8 376.59L1469.36 393.59L1439.91 376.59L1439.91 342.59z" stroke="rgba(6, 80, 156, 0.93)" stroke-width="2"></path></g><defs><mask id="SvgjsMask1027"><rect width="1440" height="560" fill="#ffffff"></rect></mask></defs></svg>